<svg xmlns="http://www.w3.org/2000/svg" width="357.397" height="254.979" viewBox="0 0 357.397 254.979">
  <g id="Groupe_1076" data-name="Groupe 1076" transform="translate(-775 -4686.951)">
    <path id="Tracé_39" data-name="Tracé 39" d="M162.247-320.383a5.107,5.107,0,0,0-1.529,2.429c0,.45.54,0,1.259-.99,1.529-2.069,1.979-1.709,2.609,2.339.72,3.778-1.529,7.737-2.969,5.4a7.65,7.65,0,0,1-.9-3.419c0-1.709-.36-1.979-1.979-1.529-2.789.72-7.017,2.429-7.017,2.7,0,.09.63,1.979,1.349,4.048,2.069,5.938,1.619,7.107-1.259,2.789l-2.609-3.868-.63,3.688c-.45,2.609-1.889,5.218-5.038,8.906-8.636,9.9-14.124,25.279-13.044,36.615a75.771,75.771,0,0,0,2.339,11.605c1.08,3.509,1.8,7.737,1.619,9.716-.27,3.419-.27,3.419,2.879,3.419,3.419,0,4.408.63,7.917,4.678,2.069,2.339,2.069,2.429.63,5.578-1.08,2.339-3.329,4.318-8.007,7.2l-6.477,3.868-6.3-1.259a31.454,31.454,0,0,0-18.082,1.08c-1.889.63-3.059,1.259-2.609,1.259.45.09.27.72-.36,1.439-1.439,1.709-.18,1.709,3.688.09,5.038-2.069,12.055-2.609,18.622-1.439l6.117,1.08,6.3-3.419c5.4-3.059,6.477-4.138,8.636-8.456,1.349-2.7,2.519-5.848,2.519-6.927,0-1.979,1.439-3.6,2.429-2.7.18.27-.09,2.789-.72,5.578-1.529,6.657-6.027,11.785-13.854,15.653-5.668,2.789-6.117,2.879-10.526,1.889-5.937-1.439-15.473-.72-20.691,1.619-5.218,2.249-11.785,8.276-14.844,13.4-2.429,4.228-3.059,4.588-4.768,2.519a3.707,3.707,0,0,0-1.889-1.349c-1.08,0-1.08,2.429,0,2.879.45.09,1.08,1.439,1.439,2.969l.54,2.7-2.069-2.609c-9.716-12.5-17.812-16.373-22.221-10.8-2.609,3.239-2.339,7.107.72,13.944,4.948,10.975,5.488,20.421,1.529,27.438-5.488,9.9-20.961,9.176-27.618-1.169-3.149-5.038-3.239-6.117-.54-5.218a45.887,45.887,0,0,0,6.747,1.08c4.138.45,5.038.18,6.927-1.529,3.239-3.059,3.688-8.276,1.439-17.812-3.6-15.384-1.8-25.639,4.948-28.518,8.816-3.688,19.162.72,28.068,12.055l3.509,4.408,1.439-2.519a63.459,63.459,0,0,1,6.027-7.287c2.429-2.609,4.5-5.128,4.5-5.488,0-2.069-3.419-.18-7.737,4.318l-4.948,4.948-4.678-4.318c-13.854-12.595-27.348-13.044-33.286-1.169-2.609,5.4-2.609,16.463.18,26.179,1.08,3.778,1.619,7.647,1.349,8.546-2.339,6.387-9.626,7.827-15.2,2.969-2.7-2.429-3.149-2.609-3.329-1.17-.45,6.387,1.259,10.526,6.387,14.934,7.557,6.477,17.722,7.737,23.93,3.059,3.958-3.059,5.578-6.117,6.657-12.775,1.08-7.2-.09-13.584-3.958-21.681-3.419-7.017-3.509-10.256-.36-12.235,3.778-2.339,13.854,3.149,17.9,9.806,1.8,2.789,2.069,4.678,2.249,12.415.09,6.567.54,9.9,1.619,11.965a12.652,12.652,0,0,1-5.488,16.913,8.747,8.747,0,0,0-4.588,5.488c-1.259,3.6-1.259,3.778,1.619,7.287,3.329,4.138,5.758,11.155,4.948,14.394-.81,3.059,2.159,5.578,7.377,6.3,3.778.45,4.048.63,2.609,1.709-1.259.9-1.979.99-2.879.18-.63-.54-3.509-.99-6.387-1.08l-5.128-.09-.27,3.149c-.36,3.688.45,9.806,1.529,11.605,1.08,1.709,3.958,0,9.806-5.848,6.027-5.937,6.747-9.446,3.868-17.183-2.969-8.1-3.778-13.764-2.339-16.553,1.529-2.879,6.837-7.647,9.446-8.456,2.429-.81,6.747,3.059,8.276,7.377l1.08,2.969,2.069-1.979c2.879-2.7,3.419-1.619.63,1.349-1.889,2.069-2.069,2.879-1.619,6.207.54,3.329,1.619,4.858,7.467,10.616,9.446,9.266,14.394,18.892,15.114,29.418.54,7.017.63,7.377,3.059,8.366,3.688,1.529,4.588,3.059,4.858,7.827.18,3.868.54,4.5,3.239,5.848a19.309,19.309,0,0,0,8.276,1.619h5.128v-3.059c0-4.588-1.259-7.107-5.758-11.7-2.249-2.249-4.138-4.858-4.138-5.758,0-.81-1.17-3.778-2.519-6.477-3.778-7.287-12.775-34.275-12.775-38.234,0-2.609,4.138-7.287,9.446-10.8,4.858-3.239,8.546-8.726,8.546-12.685,0-3.059,2.069-4.588,6.567-5.218,11.335-1.439,27.258-8.906,33.376-15.743a26.953,26.953,0,0,1,6.747-4.138c3.688-1.709,7.2-4.588,13.224-10.885,5.668-5.848,8.726-8.456,10.166-8.456,1.979,0,2.069.27,1.709,6.027-.45,7.467-3.329,13.674-8.366,17.992-2.879,2.429-3.688,3.778-4.048,6.837-.45,3.688-.54,3.778-3.868,3.778-2.159,0-3.688.54-4.138,1.349-1.259,2.339-1.979,7.827-1.349,10.346.72,2.789,1.979,2.789,10.526-.45,6.387-2.429,7.287-3.778,15.473-24.74,3.329-8.456,7.647-18.442,9.536-22.221,1.979-3.868,3.508-7.737,3.508-8.636,0-2.069-5.308-9-7.377-9.716-.9-.27-3.509.36-5.848,1.439a36.661,36.661,0,0,1-11.245,2.429l-7.017.54,1.259-2.609c1.169-2.339,1.8-4.318,4.228-14.754,1.439-6.027,3.868-8.816,8.187-9.356,14.934-1.979,19.072-1.259,24.29,3.958,3.329,3.329,3.6,3.419,6.027,2.159a11.559,11.559,0,0,0,4.138-4.408c.81-1.8,1.8-2.969,2.249-2.7.99.63.18,3.059-1.619,5.128-.72.9-.99,1.619-.45,1.619.45,0,1.439-.99,2.069-2.249s1.529-2.249,1.979-2.249c1.439,0,.72,1.889-1.619,4.228-1.889,1.8-2.519,2.069-3.059,1.08-.45-.63-1.08-.9-1.439-.54-.36.27-.18,1.08.27,1.709a11.453,11.453,0,0,1,1.529,3.868c1.439,5.848,2.7,6.747,9.446,6.747,4.678,0,6.657-.45,8.277-1.709l2.069-1.619L275.15-229.7c-3.778-4.858-7.917-9.086-10.436-10.705a19.376,19.376,0,0,1-4.408-4.858c-1.17-2.069-1.979-2.789-2.249-1.979-.99,3.6-3.958,8.546-5.578,9.626-1.709,1.08-1.709.81.54-3.6,1.259-2.609,2.609-5.4,3.059-6.207.63-1.259-.63-1.8-8.366-3.508-12.685-2.789-13.854-2.969-12.595-2.069,2.159,1.529,1.8,8.366-.36,8.366-1.349,0-1.619-.72-1.439-4.768l.18-4.678-5.308-1.619c-11.875-3.508-17.183-1.169-22.94,9.9-1.979,3.868-4.048,7.107-4.678,7.287s-1.349-.81-1.709-2.249a76.236,76.236,0,0,0-3.688-9.086c-3.059-6.387-6.3-10.256-15.383-18.442-5.308-4.768-5.128-6.927.99-9.536,3.868-1.709,5.758-1.979,10.436-1.619,5.488.45,6.027.63,9.716,4.588,4.228,4.588,5.4,4.948,8.366,2.519l1.979-1.619-3.419-2.159a15.038,15.038,0,0,1-3.778-3.329c-.63-2.069,2.519-2.339,5.038-.54,6.027,4.408,7.917,3.329,6.837-3.868-.63-4.228-1.169-5.4-2.609-5.668-.99-.18-4.228-2.159-7.2-4.318a81.361,81.361,0,0,0-10.346-6.567,31.061,31.061,0,0,1-7.107-4.858c-1.709-1.8-3.059-2.339-6.117-2.339-4.5,0-4.768-.9-1.529-5.128a12.69,12.69,0,0,0,2.069-3.419,58.146,58.146,0,0,0-7.917-.81c-5.758-.36-7.737-.81-8.726-2.069a6.7,6.7,0,0,1-1.259-2.339C165.216-322.542,163.777-322.092,162.247-320.383Zm12.325,10.526c-.54,1.619-.45,1.709.9.36a7.986,7.986,0,0,0,1.889-3.419c.54-2.879,1.349-3.509,1.349-1.08,0,2.159-1.529,5.578-2.969,6.477a3.781,3.781,0,0,1-2.519.18c-1.259-.36-1.439-.81-.81-2.069a12.932,12.932,0,0,0,.99-4.678l.09-2.969.81,2.7A9.855,9.855,0,0,1,174.572-309.858Zm-14.214-1.17c1.619,3.239.99,7.467-.99,6.657-.81-.27-1.349.09-1.349.81s-.45,1.349-.99,1.349c-.63,0-.81-.81-.54-1.889a12.171,12.171,0,0,0-.81-5.488c-1.169-3.329-1.08-3.508.18-2.429a14.316,14.316,0,0,1,2.609,3.868c1.619,3.868,1.709,1.259,0-2.789a26.406,26.406,0,0,1-1.349-3.6C157.12-315.615,159.1-313.456,160.358-311.027Zm11.155-1.259c0,3.239-1.529,3.778-1.619.63-.09-1.889.27-2.969.72-2.7A2.5,2.5,0,0,1,171.514-312.287Zm-17.093,13.314c0,3.688-1.17,2.969-2.789-1.709-2.069-6.027-2.069-6.117.54-2.879A8.989,8.989,0,0,1,154.421-298.972Zm34.006-2.069a6.27,6.27,0,0,1,1.979,3.688c0,1.619-.27,1.439-2.429-.99-2.069-2.339-3.329-2.879-7.287-3.239-7.287-.54-7.647-2.159-.36-1.709C184.828-303.02,186.9-302.481,188.426-301.041Zm-17.273,0,2.429,2.159-4.768.54c-5.848.72-6.657.18-2.609-1.619,2.969-1.439,2.159-1.349-3.6.18-2.7.63-1.8-1.259,1.169-2.429C166.925-303.47,168.545-303.2,171.154-301.041Zm-20.691,4.318a7.333,7.333,0,0,1,.72,4.588c-.45,1.529-.9.9-2.249-2.969-1.979-5.758-1.889-5.578-.81-4.858A11.02,11.02,0,0,1,150.462-296.723Zm36.525-.9c1.979,2.339,1.259,3.868-1.169,2.609-.99-.54-1.529-1.349-1.259-1.889.36-.45.09-.81-.36-.81a.925.925,0,0,0-.99.9c0,1.349-1.979,1.08-4.318-.54-1.08-.72-1.709-1.8-1.439-2.339C178.351-301.221,185.278-299.692,186.987-297.623Zm11.7.9c6.387,3.688,8.816,6.117,8.816,8.636,0,1.17-.18,2.069-.45,2.069a37.882,37.882,0,0,1-4.5-2.609,24.64,24.64,0,0,0-7.107-3.149c-2.789-.54-2.969-.81-2.879-4.138,0-1.979.36-3.6.72-3.6A33.589,33.589,0,0,1,198.682-296.723Zm-23.12-.09c.36.54-.9.9-3.059.9a24.377,24.377,0,0,0-5.218.54c-1.439.45-1.439.36.09-.9C169.354-297.893,174.662-298.252,175.562-296.813Zm-19.792,1.8c-.27.45.09.9.9.9s1.259.36.99.72c-.9,1.529,2.249,4.768,4.048,4.228.9-.36,1.709-.18,1.709.36,0,1.169-2.969,2.069-4.678,1.439a6.551,6.551,0,0,1-2.519-2.969l-1.08-2.429-1.619,3.6c-.81,1.979-2.609,7.377-3.958,11.875-2.789,9.716-3.149,22.67-.99,31.127,1.619,6.387,1.709,7.647.36,6.3-1.8-1.8-4.318-13.224-4.408-19.7a61.91,61.91,0,0,1,4.588-23.75c2.609-6.747,5.758-12.595,6.657-12.595C156.13-295.913,156.04-295.554,155.77-295.014Zm18.892,1.8a3.133,3.133,0,0,1,.9,3.329c-.54,1.439-.72,1.439-1.439-.45a4.7,4.7,0,0,0-2.159-2.519c-.72-.36-1.349-.9-1.349-1.349C170.614-295.644,172.953-295.1,174.662-293.215Zm-26.539,4.858c0,3.778-1.529,4.408-2.069.81a34.535,34.535,0,0,0-1.08-5.218c-.54-1.529-.36-1.529,1.259.36A7.2,7.2,0,0,1,148.123-288.357Zm30.767.09c-.54,1.259-1.709,2.249-2.429,2.249-1.259,0-1.349-.18-.09-1.889a4.118,4.118,0,0,0,.45-4.318l-.9-2.339,1.979,1.979C179.7-290.876,179.79-290.246,178.89-288.267Zm-17.273-3.509c0,.81-.45,1.259-1.08,1.08-1.619-.54-1.889-2.519-.36-2.519A1.421,1.421,0,0,1,161.618-291.775Zm10.8,2.519c0,.54-.45.45-1.08-.18a6.293,6.293,0,0,0-3.778-1.079l-2.789-.09,2.249-1.259c1.979-1.08,2.429-.99,3.868.18A5.03,5.03,0,0,1,172.413-289.256ZM185.368-288c-.18,5.308-.27,5.578-2.249,5.578-1.349,0-1.709-.36-1.349-1.439a20.1,20.1,0,0,0,.54-4.858c0-2.879.27-3.329,1.619-2.969C185.1-291.415,185.458-290.516,185.368-288Zm5.488-2.7c1.17.81,1.529,7.377.36,7.377-.54,0-.63.36-.36.9.27.45-.36.9-1.439.9-1.529,0-1.8-.36-1.349-2.069a25.183,25.183,0,0,0,.54-4.948C188.606-291.415,189.146-291.955,190.855-290.7ZM170.434-288c.18.63-.18.9-.99.54-.81-.27-2.249.36-3.239,1.349-1.8,1.8-1.889,1.8-1.889.09C164.317-288.986,169.444-290.786,170.434-288Zm27.168,2.429c-.45,1.259-.63,2.249-.36,2.249s-.09.63-.9,1.349c-2.249,2.249-3.149,1.529-2.7-2.069.81-5.488.99-5.758,3.059-4.678C198.142-288,198.322-287.367,197.6-285.568Zm-16.193-1.889a7.387,7.387,0,0,1-1.619,3.329c-1.259,1.439-2.159,1.8-3.419,1.349-1.619-.63-1.529-.81.36-1.529a4.638,4.638,0,0,0,2.609-2.609C179.88-288.986,181.409-289.346,181.409-287.457Zm32.386.18c0,.81-.45,1.259-1.08,1.079-1.619-.54-1.889-2.519-.36-2.519A1.421,1.421,0,0,1,213.8-287.277Zm-70.71,1.439c1.619,2.249,1.979,7.467.54,6.567a3.148,3.148,0,0,1-.9-2.339,8.534,8.534,0,0,0-1.439-3.958C139.487-288.357,141.2-288.537,143.086-285.838Zm30.227-.18a.9.9,0,0,1-.9.9.967.967,0,0,1-.9-.9.9.9,0,0,1,.9-.9A.85.85,0,0,1,173.313-286.018Zm-4.948,2.339c-.63,1.349-.99,2.969-.72,3.6.72,1.889-.45,1.529-1.439-.36a3.039,3.039,0,0,1,.45-3.6C168.545-286.827,169.894-286.467,168.365-283.679Zm34.635-.9c0,2.069-1.709,4.858-3.059,4.858-.9,0-.99-.63-.18-3.149C200.751-286.018,203-287.277,203-284.578ZM157.12-279.99a3.811,3.811,0,0,0,3.778.18c1.259-.63,1.619-.54,1.619.45,0,1.529-3.329,2.7-5.937,2.159-.81-.09-2.339-1.349-3.329-2.7-1.619-2.069-1.619-2.609-.54-3.958,1.17-1.349,1.259-1.349,1.709.63A5.9,5.9,0,0,0,157.12-279.99Zm2.7-2.789c0,1.259-1.889,1.709-2.969.63-.81-.81,1.17-3.059,2.159-2.429A2.279,2.279,0,0,1,159.818-282.779Zm11.425.36a3.946,3.946,0,0,0,.9,3.239c.72.72,1.08,1.619.72,1.979s-1.349-.36-2.339-1.439c-1.259-1.619-1.439-2.519-.81-3.868C170.974-284.758,171.873-284.668,171.244-282.419Zm3.239.36a3.5,3.5,0,0,0,2.609,1.619c1.889.36,1.979.45.36,1.17a3.577,3.577,0,0,1-4.858-2.609C172.233-283.679,173.853-283.859,174.482-282.059ZM139.667-279.9c2.789,2.339,4.138,5.308,3.239,7.017-.72,1.259-.9.99-1.439-1.08a14.087,14.087,0,0,0-3.059-5.128C135.8-281.789,136.7-282.329,139.667-279.9Zm65.4,4.588c2.609,1.349,3.239,2.789,1.259,2.789-.72,0-2.159-1.08-3.419-2.339C200.661-277.381,200.841-277.381,205.069-275.312Zm-34.006.45a1.292,1.292,0,0,1,1.619.9c.45,1.169-.09,1.439-2.789,1.439a27.6,27.6,0,0,0-5.308.54c-1.529.45-2.069.18-2.069-.9,0-1.349,1.259-1.8,4.318-1.709a.949.949,0,0,0,1.08-.9c0-.72.27-.72.99,0A2.486,2.486,0,0,0,171.064-274.862Zm-13.944,1.889a1.384,1.384,0,0,1-1.349,1.349,1.384,1.384,0,0,1-1.349-1.349,1.384,1.384,0,0,1,1.349-1.349A1.384,1.384,0,0,1,157.12-272.973Zm-14.934,5.128c.99,3.778.54,3.868-1.709.45-1.259-1.8-2.7-3.329-3.149-3.329a.9.9,0,0,1-.9-.9C136.428-273.333,141.556-269.914,142.186-267.845Zm10.076-3.329c.63,1.619,5.848,1.8,7.377.27.81-.81,1.08-.72,1.08.45,0,1.709-2.609,3.329-5.488,3.329-2.249,0-5.308-2.339-5.308-4.228C149.923-272.973,151.632-272.883,152.262-271.174Zm24.65,3.239c0,.45-1.709.81-3.778.81a16.494,16.494,0,0,0-7.827,2.249c-4.678,2.7-4.5,2.7-4.318.36.18-2.249,3.778-4.318,9-4.948a23.612,23.612,0,0,0,4.138-.9C174.662-270.814,176.911-268.835,176.911-267.935ZM141.2-263.347c2.879,3.329,1.709,4.588-1.439,1.439a31.84,31.84,0,0,0-4.678-4.048c-1.439-.9-1.169-.9,1.349-.09A11.643,11.643,0,0,1,141.2-263.347Zm41.742.45c.27.81-.63,1.17-2.609,1.17-4.588,0-11.155,2.519-14.394,5.488-2.159,2.069-2.969,2.429-3.508,1.529-1.259-1.889-.99-4.588.36-4.048.63.27,1.709-.36,2.339-1.259.54-.99,1.439-1.529,1.889-1.259.54.27.9-.09.9-.9,0-.99.45-1.349,1.349-.99.72.27,1.349.18,1.349-.18C170.614-264.517,182.579-264.067,182.939-262.9Zm-27.618.63c0,1.349-2.159,2.519-3.059,1.709a1.692,1.692,0,0,1,1.259-2.969C154.511-263.527,155.32-262.987,155.32-262.268Zm3.6,1.439c0,2.429-3.149,5.4-5.758,5.4-2.429,0-5.038-2.159-5.038-4.138,0-1.619.81-1.619,2.879.27,1.349,1.169,2.069,1.259,3.868.45,1.259-.54,2.249-1.619,2.249-2.429,0-.72.45-1.349.9-1.349C158.559-262.628,158.919-261.818,158.919-260.828Zm-18.532,2.789c1.259.99,2.339,2.519,2.339,3.239,0,1.169-.45.99-2.249-.63a17.236,17.236,0,0,0-4.768-3.239l-2.429-1.079,2.339-.09A8.089,8.089,0,0,1,140.387-258.04Zm39.583.63c.45-.9.63-.9,1.08.09s.72.99,1.439,0c.63-.99.99-.99,1.349-.18.27.72,1.259.99,2.429.63a3.292,3.292,0,0,1,3.239.99c1.619,1.979.54,2.609-4.318,2.339-6.207-.27-12.5,1.979-16.463,5.848-1.889,1.889-3.6,3.239-3.778,2.969a11.739,11.739,0,0,1-.99-2.879c-.45-1.8-.27-2.429.81-2.429a1.384,1.384,0,0,0,1.349-1.349c0-.81.54-1.08,1.349-.81.99.45,1.17.18.81-.99-.54-1.259-.27-1.439,1.259-.99,1.529.54,1.889.36,1.439-.72-.63-1.709.63-1.889,2.159-.36.81.81,1.08.72,1.08-.54,0-1.349.27-1.439,1.349-.54s1.349.81,1.349-.45.27-1.349,1.259-.54S179.52-256.51,179.97-257.41Zm39.853,2.789c1.979.54,2.969.54,3.239-.18.54-1.709,2.339.27,2.969,3.329.54,2.969-.72,6.837-2.249,6.837-.45,0-.36-1.169.18-2.609.9-2.519.27-6.3-.9-5.128-.36.36-.63,1.889-.72,3.509,0,2.249-.45,2.969-1.979,3.149-1.17.18-2.069.72-2.069,1.169s-.81.81-1.8.81-1.8-.36-1.8-.9a5.681,5.681,0,0,0-1.8-2.519c-1.169-1.08-1.619-2.249-1.259-3.149.81-2.159,1.529-1.889,2.879,1.17,1.349,2.969,3.778,3.508,5.578,1.349.9-1.08.81-1.349-.36-1.349-.9,0-1.259.36-.99.9.27.45.18.9-.27.9-1.349,0-4.858-5.488-4.318-6.837C214.7-255.611,215.865-255.7,219.823-254.621Zm9.716.81c.81.54,1.08,4.408.63,8.007a1.708,1.708,0,0,1-1.709,1.169c-1.349,0-1.619-.81-1.619-4.948C226.84-254.261,227.47-255.341,229.539-253.811Zm-88.612,1.529c1.529.81,2.7,2.069,2.7,2.879,0,1.349-.09,1.349-1.619,0a20.034,20.034,0,0,0-4.678-2.789c-2.609-1.169-2.789-1.349-1.08-1.439A12.866,12.866,0,0,1,140.926-252.282Zm16.463,1.08c.81.81-1.169,3.059-2.159,2.429-1.259-.72-.99-3.059.36-3.059A2.539,2.539,0,0,1,157.389-251.2Zm83.934.72c.9,2.159-.45,5.848-1.979,5.848-.99,0-1.259-.45-.9-1.439a13.781,13.781,0,0,0,.54-3.6C238.985-252.1,240.514-252.642,241.324-250.483Zm-85.734,4.048a7.191,7.191,0,0,0,3.149-1.439c1.709-1.169,1.979-1.169,1.979,0,0,4.228-7.017,5.668-9.536,1.889-1.889-2.879-.81-4.5,1.439-2.249A6.029,6.029,0,0,0,155.59-246.434Zm27.888-2.879c.36-.9.72-.9,1.529.18s1.17,1.079,1.529.18.72-.9,1.709-.09,1.259.72,1.259-.18c0-.99.18-.99.9.09.81,1.169.99,1.169,1.709,0,.72-1.08,1.08-.9,1.709.9a9.949,9.949,0,0,1,.72,2.429c0,.09-2.7.18-5.937.36a30.209,30.209,0,0,0-18.082,6.207,25.845,25.845,0,0,1-3.868,2.7c-.27,0-.54-1.259-.54-2.789,0-2.159.36-2.7,1.349-2.249.9.36,1.349-.09,1.349-1.259,0-1.259.45-1.619,1.529-1.169s1.349.18.9-.9c-.63-1.8.36-1.979,1.889-.45.81.81,1.08.63,1.08-.9,0-1.08.45-1.979.9-1.979a.85.85,0,0,1,.9.9.967.967,0,0,0,.9.9c.54,0,.9-.63.9-1.439,0-1.259.27-1.259,1.349-.36s1.349.81,1.349-.45.27-1.349,1.259-.54S183.119-248.414,183.478-249.313Zm63.873,1.08c.27.99.09,1.8-.45,1.8-.45,0-.54.45-.27.9a2.127,2.127,0,0,1-.81,2.249c-1.8,1.8-2.429.54-1.709-3.419C244.653-250.3,246.542-251.2,247.351-248.234Zm4.858,1.979a8.9,8.9,0,0,1-.63,3.419,10.457,10.457,0,0,0-1.349,2.429c-.63,1.439-1.259,1.8-2.159,1.169-1.08-.63-1.169-1.169-.27-3.149a12.156,12.156,0,0,0,1.08-4.5c0-1.619.45-2.249,1.709-2.249C252.029-249.133,252.3-248.594,252.209-246.255Zm-107.684,1.619a6.137,6.137,0,0,1,1.8,3.329c-.09,1.439-.27,1.349-1.619-.27a17.759,17.759,0,0,0-4.228-3.329l-2.7-1.439,2.519-.09A6.89,6.89,0,0,1,144.525-244.635Zm64.773.09c0,.45.45.63.9.36.54-.27.9-.18.9.36s.63.72,1.349.45c.99-.45,1.17-.18.81.9-.27.81-.09,1.439.45,1.439s.99.63.99,1.349c0,1.709-1.259,1.709-2.609.09a11.338,11.338,0,0,0-3.688-2.339c-2.159-.9-2.519-1.349-1.709-2.339C207.948-245.8,209.3-245.895,209.3-244.545ZM145.6-238.608a4.8,4.8,0,0,1,1.619,2.789c0,1.08-.36.99-1.889-.36a16.68,16.68,0,0,0-5.218-2.7l-3.239-1.08,3.509-.09A7.853,7.853,0,0,1,145.6-238.608Zm15.114-.27c0,1.8-1.709,2.789-2.879,1.619a1.7,1.7,0,0,1-.36-1.889C158.379-240.587,160.718-240.317,160.718-238.878Zm45.881-.27c0,.54.54.81,1.08.63,1.349-.45,3.419,1.349,3.419,2.879,0,.54.45.72.9.45.54-.27.9.27.9,1.259,0,2.609-1.349,2.969-3.239.9a17.007,17.007,0,0,0-4.228-3.239c-2.069-1.08-2.339-1.529-1.439-2.609C205.249-240.407,206.6-240.5,206.6-239.148Zm-50.828,1.889c1.169,2.609,3.688,3.059,5.937,1.08,1.529-1.349,1.709-1.349,1.709-.09,0,2.069-2.519,4.228-5.038,4.228-3.509,0-7.107-4.588-5.128-6.567C154.241-239.687,154.871-239.327,155.77-237.258Zm28.338-.99c0,.72.54.63,1.529-.18,1.259-1.08,1.529-1.08,1.889,0,.36.99.54.99,1.17,0,.54-.9.99-.99,1.529-.27.81,1.259,4.048,1.259,4.858,0s1.349-.63,1.8,2.159c.27,2.159.18,2.159-7.017,2.249-6.3.09-8.1.45-13.314,3.059-3.329,1.619-6.657,3.868-7.377,5.128-2.159,3.239-3.059,2.609-3.059-2.069,0-3.329.27-3.958,1.08-3.149,1.619,1.619,2.429,1.349,1.889-.72s.63-2.339,2.339-.72c.99.99,1.08.81.63-.81-.63-1.979.72-3.688,1.709-2.069a2.1,2.1,0,0,0,1.439.9c.54,0,.63-.45.36-.9-.99-1.529.45-2.879,1.889-1.709.99.81,1.259.81,1.259,0,0-.72.72-.9,1.8-.54.99.36,1.8.18,1.8-.36a.985.985,0,0,1,.9-.99A.925.925,0,0,1,184.108-238.248Zm80.786.99c-1.349,1.979-5.308,4.588-5.937,3.868-.45-.45,5.488-5.758,6.477-5.848C265.884-239.238,265.614-238.338,264.894-237.258ZM203-233.48a2.378,2.378,0,0,0,2.429.81c.99-.36,1.259-.18.81.45-.36.63-.09,1.08.72,1.08.9,0,1.169.54.9,1.349-.36.72-.09,1.349.45,1.349a1.139,1.139,0,0,1,.99,1.259,1.75,1.75,0,0,0,.99,1.619c.63.18.81,1.169.45,2.339-.72,2.159-2.339,2.7-2.339.72,0-.72-1.979-3.509-4.5-6.207-3.958-4.318-4.678-6.027-2.7-6.027A3.614,3.614,0,0,1,203-233.48Zm-48.31,4.948c-.54,2.249,3.778,5.4,5.4,3.778,1.259-1.259,2.429-1.259,2.429-.09,0,1.619-4.318,3.778-6.3,3.149-2.879-.9-4.858-4.408-3.6-6.657C153.881-230.691,155.32-230.781,154.691-228.532Zm4.768,1.439c-.45,1.259-.81,1.349-1.889.45s-1.17-1.439-.36-2.429C158.559-230.691,160.268-229.162,159.459-227.093Zm38.144.9c2.969,1.529,6.3,6.207,6.3,8.816,0,1.169-.81.72-3.329-1.979a18.781,18.781,0,0,0-23.21-2.519c-1.889,1.349-3.688,2.159-3.958,1.889-.99-.99,7.2-7.377,10.526-8.187C187.707-229.072,193.644-228.262,197.6-226.193Zm-30.767,6.117c1.259.99,1.529,4.228.27,4.228-.45,0-1.349-.81-1.979-1.8-1.08-1.439-1.529-1.529-3.239-.63s-1.8,1.259-.72,2.7c.99,1.349,1.529,1.439,3.059.72,2.429-1.349,3.688.63,1.439,2.339-2.159,1.439-3.239,1.439-5.308,0-2.339-1.709-2.159-6.027.27-7.917C162.517-222.055,164.5-221.875,166.835-220.076Zm23.12,1.979c2.429,2.339,2.879,5.758,1.17,7.467s-2.069,1.349-2.069-2.249c0-2.969-.36-3.6-2.969-4.858-1.8-.99-2.519-1.709-1.8-1.979C186.627-220.615,187.8-220.346,189.956-218.1Zm-40.483.72a4.016,4.016,0,0,0,4.948,4.678c2.339-.72,2.159,1.08-.27,2.609-3.6,2.249-9.716-4.678-6.927-7.917C148.843-220.076,150.013-219.716,149.473-217.377Zm47.77,2.969a6.842,6.842,0,0,1-3.688,7.737c-3.239,1.439-3.868.18-.99-2.069,2.519-1.979,2.789-4.138.99-8.366-.63-1.439-.54-1.529,1.169-.63A5.58,5.58,0,0,1,197.243-214.408Zm-42.822-1.979c0,1.889-1.889,2.789-2.7,1.349a2.233,2.233,0,0,1-.36-1.889C152.172-218.186,154.421-217.737,154.421-216.387Zm9.716-.27a1.333,1.333,0,0,1-1.17.9,1.333,1.333,0,0,1-1.169-.9c-.18-.54.36-.99,1.169-.99S164.317-217.2,164.137-216.657Zm22.041,2.789c2.339,3.149,1.08,5.218-1.349,2.069-1.889-2.429-5.038-2.969-6.837-1.169-.54.54-1.349.72-1.709.36-1.17-1.169,3.508-4.228,5.848-3.958A7.21,7.21,0,0,1,186.177-213.868Zm44.711-.09c0,.36-.72,1.17-1.529,1.619-.9.54-1.439.99-1.17.99.27.09,1.439.27,2.609.54,2.969.54,4.588,1.979,4.588,4.048,0,1.619-.9,2.069-3.329,1.8a.93.93,0,0,0-1.169.81c0,.45-.81.9-1.8.9a1.59,1.59,0,0,1-1.8-1.709,2.478,2.478,0,0,0-1.8-2.159c-2.339-.63-2.339-3.329,0-3.958.99-.27,1.529-.81,1.259-1.349-.81-1.259,1.349-3.419,2.879-2.789C230.349-214.948,230.888-214.408,230.888-213.958Zm-11.515,1.889c-.18.9.27,1.619.81,1.619.63,0,.81.27.54.63-.36.27-.18,1.08.36,1.8.81.9.72,1.17-.09,1.17-.63,0-.9.63-.54,1.529.54,1.259-.72,2.879-2.249,2.969-.36,0-.81-1.709-1.08-3.868a41.446,41.446,0,0,0-1.169-5.848c-.54-1.889-.36-2.069,1.529-1.8C218.923-213.688,219.553-213.059,219.373-212.069Zm15.743-.63c.27.81.27,1.709-.09,1.979-.63.63-3.239-1.439-3.239-2.519C231.788-214.588,234.487-214.138,235.117-212.7Zm-93.74,1.349c-.9,2.789,1.889,6.567,4.228,5.758,1.349-.36,1.709-.18,1.439.63-.27.72-1.529,1.439-2.969,1.529-4.228.54-7.647-5.758-4.768-8.636C141.016-213.778,142.006-213.328,141.376-211.349Zm28.608,2.249c-.81,6.027,1.529,11.155,7.467,16.643,2.789,2.429,5.578,4.5,6.3,4.5,2.249,0,1.349,1.619-1.529,2.609-3.688,1.259-3.778,1.259-3.149-.45.45-1.079.09-1.259-1.439-.72-1.529.45-1.8.27-1.349-.9s.18-1.349-1.619-.9c-2.519.63-2.7.18-1.259-2.429.81-1.619.63-1.709-1.349-1.169-2.519.63-3.059-.36-1.17-2.249.9-.9.63-.99-1.349-.54-2.789.72-3.329-.45-1.17-2.249,2.069-1.709,1.619-2.789-.9-2.159-2.429.63-3.149-.9-.9-1.8,2.069-.72,1.619-2.339-.63-2.339-2.069-.09-2.069-.09-.27-1.439,1.259-.99,1.439-1.619.72-1.889a1.511,1.511,0,0,1,.45-2.969c1.259,0,1.349-.18.18-.9-1.17-.81-1.17-.99,0-1.8C169.894-214.138,170.614-213.328,169.984-209.1Zm42.462-2.249c.27.99.9,1.8,1.259,1.8.9,0,.72,9.986-.18,11.425a2.747,2.747,0,0,1-1.8,1.169c-.72,0-.99-1.619-.81-5.4a25.972,25.972,0,0,0-.63-8.1c-.72-2.159-.63-2.7.36-2.7C211.277-213.149,212.176-212.339,212.446-211.349Zm-4.948,0a1.079,1.079,0,0,1-1.08.9c-.81,0-.81.27-.27.72,1.259.81,1.529,4.678.27,4.678-.63,0-.54.45.09,1.259.72.81.72,1.439.18,1.8a1.47,1.47,0,0,0-.36,1.889c.27.72,0,1.349-.63,1.349s-.81.72-.45,1.8c.36.99.18,1.8-.36,1.8s-.72.63-.45,1.349c.36.81,0,1.349-.9,1.349s-1.17.45-.81,1.529c.45,1.259.09,1.349-2.429.81-4.048-.72-4.318-1.259-1.889-2.969,3.149-2.159,5.488-8.1,5.488-14.034,0-4.5.18-5.128,1.8-5.128C206.689-212.249,207.5-211.889,207.5-211.349Zm-61.174,1.8a1.664,1.664,0,0,1-3.149.9c-.72-1.259.27-2.7,1.889-2.7C145.784-211.349,146.324-210.54,146.324-209.55Zm38.5-.18c.27.81-.36,1.169-1.709,1.08-4.408-.36-5.4.09-6.657,2.879-.99,2.339-1.349,2.609-1.8,1.439-.63-1.529.9-5.128,2.609-6.387C178.8-211.8,184.378-210.989,184.828-209.73Zm15.473,1.979c0,4.588-5.848,8.007-8.816,5.038-1.349-1.349-1.259-1.439.99-1.439,2.879,0,6.027-2.879,6.027-5.488,0-.99.45-1.529.9-1.259C199.941-210.63,200.3-209.19,200.3-207.751Zm-83.035,0c-.81,2.249-.81,3.239.36,5.218,1.08,1.979,1.979,2.429,4.678,2.339,4.858-.18,3.868,2.339-1.439,3.688-1.979.54-2.879.18-5.128-2.249-3.149-3.419-3.509-7.287-.9-9.9S118.436-210.9,117.267-207.751Zm12.055-.63c-2.339,2.339.36,6.927,4.138,6.927,2.339,0,2.789,1.349.63,2.159-2.519.99-4.228.54-6.387-1.439-2.519-2.339-2.879-7.377-.54-8.726C129.052-210.54,130.671-209.73,129.321-208.381Zm33.106,3.688c-.09,7.917,4.318,15.653,12.055,21.321l3.508,2.609-2.339.9c-3.419,1.259-5.038,1.17-4.5-.36.36-.99,0-1.169-1.349-.81-2.069.54-2.429-.54-.72-2.339.9-.9.54-.99-1.529-.45-2.429.63-2.609.54-1.979-1.8.54-2.249.45-2.339-1.349-1.439-2.339,1.349-3.329.45-1.889-1.8,1.439-2.429,1.439-2.429-1.619-1.979-3.239.45-3.419-.27-.63-2.609l1.979-1.619-2.429-.09c-2.789,0-3.329-1.259-.9-2.249,1.349-.54,1.259-.72-.45-1.439-2.339-.81-2.789-2.609-.72-2.609,1.889,0,1.709-1.439-.18-2.249-1.529-.54-1.529-.63,0-1.8,1.259-.9,1.349-1.349.54-1.889-.81-.45-.63-.9.63-1.349C162.068-210.09,162.427-209.73,162.427-204.692Zm26.719-2.969a1.589,1.589,0,0,1-2.429,1.979,1.728,1.728,0,0,1,.99-2.969A2.126,2.126,0,0,1,189.146-207.661Zm-65.312,2.609a2.6,2.6,0,0,1-3.688,2.159c-1.17-.72-.99-3.778.36-4.228C122.3-207.751,123.834-206.761,123.834-205.052Zm10.615-.63c.18.99-.27,1.529-1.529,1.529-2.069,0-3.149-1.349-2.339-2.789C131.48-208.291,134.089-207.481,134.449-205.682Zm47.86,1.439c-3.059,2.519-3.059,2.7-2.069,5.578,1.259,3.329.81,4.5-1.08,2.519-3.688-3.778-1.17-10.705,3.868-10.705h2.339Zm-77.367.99c-2.339,4.318,2.249,10.256,6.3,8.1,2.609-1.439,3.329-.45,1.349,1.8-3.149,3.509-8.726,1.8-10.885-3.149-1.439-3.509-.63-6.927,2.069-8.366C105.931-206.132,106.2-205.682,104.942-203.253Zm47.86,3.868c-.27,4.5,0,6.477,1.439,9.356,1.979,3.778,10.346,11.965,12.325,11.965a3.227,3.227,0,0,1,2.159,1.259c.81.99.45,1.439-1.889,2.429-1.619.63-3.329,1.349-3.778,1.529-.36.18-.45-.45-.09-1.529.54-1.709.36-1.889-1.8-1.349s-2.249.36-1.8-1.709c.54-1.979.36-2.159-1.709-1.8-2.519.54-3.059-.45-1.259-2.249,1.349-1.349.27-1.439-2.069-.18-1.979,1.08-2.249,0-.81-2.7.9-1.619.72-1.709-1.979-1.169-2.879.54-2.969.54-1.349-1.259,2.159-2.429,1.889-3.059-.9-2.429l-2.519.63,2.159-2.429,2.159-2.339h-2.339c-2.969,0-3.149-1.439-.45-2.339l2.069-.63-2.069-.72c-2.249-.9-1.889-2.609.54-2.609,1.439-.09,1.439-.18-.09-1.259-1.439-1.169-1.439-1.259.45-2.609C152.711-205.952,153.161-205.412,152.8-199.384Zm32.566-2.249c-.54,3.509.63,5.668,3.419,6.747,1.979.72,0,1.8-2.249,1.169-2.069-.45-4.228-3.778-4.228-6.567,0-1.259,2.429-4.768,3.329-4.768C185.817-205.052,185.638-203.523,185.368-201.633Zm-74.129-.18c.99,1.08.9,1.619-.27,2.879-1.439,1.349-1.619,1.349-3.059,0-1.17-1.259-1.259-1.8-.27-2.879a3.706,3.706,0,0,1,1.8-1.439A3.706,3.706,0,0,1,111.239-201.813Zm78.627.81c1.529,2.339,4.048,2.879,6.927,1.349,2.069-1.169,2.249-.27.18,1.979-2.159,2.429-6.117,2.069-8.277-.72-1.979-2.519-2.519-4.858-1.08-4.858C188.067-203.253,189.056-202.263,189.866-201Zm43.362,0c-2.159,1.709-3.958,1.619-6.837,0-2.159-1.259-1.979-1.259,3.149-1.259C234.487-202.263,234.757-202.173,233.227-201Zm-89.422,1.619c.99,1.529.9,3.329-.18,3.329-.45,0-1.259-.81-1.8-1.8-.81-1.439-1.259-1.619-3.059-.81s-1.979,1.259-1.08,3.059c.81,1.709,1.259,1.889,2.969,1.08,2.519-1.169,3.6-.27,2.069,1.619-2.429,2.969-7.377.54-7.377-3.6a5.266,5.266,0,0,1,1.619-3.778C138.857-201.633,142.726-201.094,143.805-199.384Zm87.353.63c2.789,0,2.969.72,1.08,3.239-1.08,1.349-1.439,1.439-2.159.45-.54-.81-.9-.9-1.439-.18-.45.72-1.169.45-2.339-.9-2.249-2.609-2.159-3.868.36-3.149A22,22,0,0,0,231.158-198.755Zm-90.232,2.249c0,.72-.36,1.349-.81,1.349-1.169,0-1.979-1.439-1.259-2.159C139.847-198.3,140.926-197.855,140.926-196.506ZM94.6-193.357c-.72,2.339.9,5.128,3.868,6.657,2.159,1.08,2.789,1.08,4.948,0,2.879-1.529,3.329-.18.9,2.519-2.789,3.059-9.356,1.349-11.605-2.969-1.529-3.059-1.619-5.488-.18-6.927C94.146-195.7,95.226-195.336,94.6-193.357Zm7.2,2.249c0,2.7-3.509,2.429-3.868-.27-.27-1.8,0-2.069,1.8-1.8C101.073-193,101.793-192.277,101.793-191.108Zm20.6-.54c.27.45-1.169.99-3.239,1.259-5.128.72-7.917,3.059-11.065,9.266-2.429,4.768-2.7,5.038-2.969,2.789-.36-3.329,3.688-10.166,7.287-12.415C115.377-192.457,121.585-193.087,122.394-191.648Zm5.937.27c0,.81.27.81,1.08,0,1.349-1.349,2.879-1.439,1.979-.09-.36.72.09.81,1.439.36,1.709-.54,1.979-.36,1.529.81-.63,1.709.36,1.889,1.889.36.81-.81,1.08-.63,1.08,1.08s.27,1.889,1.08,1.08c1.529-1.529,2.519-1.349,2.519.63,0,1.349.45,1.619,1.979,1.17,1.619-.36,1.8-.18,1.349,1.529-.36,1.619-.18,1.889,1.349,1.349,1.619-.45,1.8-.27,1.349,1.439-.45,1.619-.18,1.889,1.349,1.529,1.529-.45,1.709-.18,1.259,1.619-.45,1.709-.27,2.069.81,1.709.9-.36,1.349,0,1.349.9a1.332,1.332,0,0,1-1.08,1.439c-.63,0-.36.63.63,1.439,1.439,1.08,1.529,1.529.63,2.069-.99.54-.9.9.36,1.349,1.439.54,1.439.72.36,1.439-2.249,1.439-3.6.99-3.6-1.169,0-2.429-4.408-10.256-7.287-12.955-2.429-2.159-10.705-5.668-13.4-5.668-1.349,0-1.8-.63-1.8-2.249,0-1.259.45-2.249.9-2.249C127.972-192.457,128.332-192.007,128.332-191.378Zm102.107-.18c.9,1.439-1.349,2.879-3.509,2.339-3.419-.81-3.059-3.329.45-3.059A6.279,6.279,0,0,1,230.439-191.558Zm-105.255,3.6c.36.54-.54.9-1.979.9-4.948,0-11.965,6.207-13.314,11.875-.72,2.969-2.249,3.329-2.249.72,0-2.969,3.239-8.456,6.747-11.515,2.429-2.159,4.048-2.879,6.747-2.879C123.024-188.859,124.913-188.5,125.183-187.959ZM229-186.52c.18.18.09.9-.18,1.619-.72,1.8-4.588.54-4.948-1.619-.27-1.259.18-1.439,2.249-.9A15.712,15.712,0,0,1,229-186.52Zm-30.5.99c.72.63-2.879,2.969-4.5,2.969-.81,0-2.879,1.259-4.588,2.789-6.3,5.668-24.29,13.944-28.878,13.224-3.868-.54-2.339-2.069,4.048-4.048A55.035,55.035,0,0,0,186-183.1c3.778-3.778,4.138-3.868,8.007-3.419A25.474,25.474,0,0,1,198.5-185.53Zm-64.952,4.948c.18,1.619.72,2.249,1.529,1.979a1.539,1.539,0,0,1,1.8.54c.36.63-.09,1.259-1.169,1.529a3.16,3.16,0,0,0-2.249,2.249l-.54,1.8,1.979-1.8c2.7-2.429,5.848-3.239,7.377-1.979,1.17.9,1.08,1.439,0,3.6a12.185,12.185,0,0,1-3.329,3.958c-1.529,1.08-1.709,1.439-.54,1.439a2.33,2.33,0,0,0,1.979-1.529c.45-1.169.81-1.259,1.709-.27.81.9.81,1.259-.18,1.529-.81.36-.45,1.08,1.349,2.519,2.249,1.8,2.429,2.249,1.349,3.509a4.242,4.242,0,0,1-2.879,1.439c-1.17,0-1.709.63-1.709,1.889,0,1.08-.45,1.709-1.08,1.439a1.465,1.465,0,0,1-.9-1.709,1.884,1.884,0,0,0-1.529-1.889c-1.709-.45-1.709-.36,0,2.429,3.329,5.488,1.349,9.446-3.239,6.477-1.349-.9-2.249-1.08-2.249-.54,0,.63-.72.81-1.8.45-.99-.27-1.8-.18-1.8.36a4.921,4.921,0,0,1-1.439,2.339c-1.8,1.8-3.958.27-3.958-2.789,0-1.349-.54-2.159-1.349-2.159-.72,0-1.349-.36-1.349-.81s-1.259-.72-2.879-.63c-2.159.09-2.969-.36-3.239-1.529-.36-1.889,2.879-5.758,5.668-6.927,1.709-.72,1.709-.81-.09-.81a2.711,2.711,0,0,0-2.519,1.259c-.72,1.979-2.609,1.709-2.159-.27a2.533,2.533,0,0,0-1.17-2.789c-2.069-1.259-2.249-4.228-.27-4.948,2.429-.9,7.107-.63,8.366.54.63.63.09-.45-1.17-2.339-2.609-3.868-2.969-6.117-1.08-7.647,1.709-1.439,3.868-.36,6.3,3.239,2.069,2.969,2.159,2.969,2.159.81,0-1.259-.45-2.159-.9-2.069a1.471,1.471,0,0,1-1.439-1.08c-.27-.9.09-1.169,1.349-.81a2.587,2.587,0,0,0,2.879-1.259C130.671-184.271,133.19-183.551,133.55-180.582Zm92.211-1.439c.9.36,1.439,1.08,1.259,1.619-.45,1.169-3.329,1.439-4.858.27-1.349-.9-.45-3.6.99-2.879A20.187,20.187,0,0,0,225.761-182.022ZM91.178-176.984c2.249,2.609,5.668,2.879,8.007.63,2.789-2.609,3.868-1.439,1.529,1.709-2.969,3.958-9.806,3.868-12.5-.36-1.259-1.889-1.349-2.609-.36-4.678,1.08-2.159,1.259-2.249,1.619-.63A9.042,9.042,0,0,0,91.178-176.984Zm6.117-3.778c.81,1.349-1.259,3.6-2.789,2.969-1.979-.72-1.619-3.868.45-3.868A3.148,3.148,0,0,1,97.295-180.762Zm125.047,3.239c1.889,1.259,3.149,3.958,1.889,3.958-2.159,0-5.038-2.069-5.038-3.6C219.193-179.323,219.553-179.413,222.342-177.524Zm-103.906,4.048c0,.45-.63.81-1.349.81-1.349,0-1.8-1.08-.81-2.069C117-175.455,118.436-174.645,118.436-173.475Zm100.487-.09a8.261,8.261,0,0,0,3.6,1.8c.99,0,.99.36.27,1.889-.81,1.439-1.259,1.619-2.339.72-.72-.54-1.259-.72-1.259-.36s-.99-.36-2.249-1.709-2.069-2.879-1.8-3.329C215.955-175.724,216.4-175.634,218.923-173.565Zm-3.239,3.958a17.818,17.818,0,0,0,3.6,2.519c1.349.45.45,3.419-.99,3.419-.45,0-.9-.63-.9-1.439,0-.72-.36-1.17-.81-.81-.9.45-4.588-3.6-4.588-5.038C212-172.216,212.9-171.856,215.685-169.607Zm-119.02,1.17c.45,1.529-2.339,2.609-3.6,1.349a1.641,1.641,0,0,1-.27-1.979C93.607-170.327,96.125-169.877,96.665-168.437Zm4.678,1.8c0,2.969-3.419,5.668-7.107,5.668-2.609,0-7.107-4.138-5.848-5.4.72-.72,1.259-.63,2.159.45,1.709,1.979,6.927,1.709,8.276-.45C100.264-168.617,101.343-168.707,101.343-166.638Zm7.2,2.069a19.715,19.715,0,0,0,5.128,12.775c2.429,2.519,10.526,6.117,13.854,6.117,1.439,0,1.709.36,1.169,1.979-.9,2.969-1.259,3.149-2.7,1.259-.72-.99-1.259-1.259-1.259-.72,0,.63-.36,1.08-.9,1.08-.45,0-.9-.63-.9-1.349s-.36-1.349-.9-1.349a.9.9,0,0,0-.9.9.9.9,0,0,1-.9.9c-.45,0-.9-.72-.9-1.529,0-1.17-.27-1.259-1.08-.45-1.619,1.619-2.789,1.259-2.249-.72.54-2.069.27-2.159-2.249-.81-1.619.81-1.709.72-1.17-.9.72-2.429-.81-2.429-3.239,0-.99.99-2.069,1.709-2.249,1.439-.18-.18.45-1.08,1.439-1.979a5.77,5.77,0,0,0,1.8-3.509c-.09-1.709-.36-1.619-2.7,1.08-3.149,3.419-3.419,2.789-.99-2.159,1.259-2.429,1.439-3.6.72-3.778-3.6-.99-3.6-1.08-1.889-2.429,1.529-1.17,1.529-1.259.18-1.349-.9,0-1.619-.27-1.619-.54,0-.36.72-1.169,1.619-1.8,1.349-1.08,1.259-1.17-1.17-1.259l-2.7-.09,2.7-2.159c1.529-1.259,2.969-2.249,3.419-2.249C108.27-168.168,108.54-166.548,108.54-164.569Zm108.854,4.678c0,1.439-1.709.63-3.509-1.619-3.059-3.868-2.249-5.848.81-2.159A16.847,16.847,0,0,1,217.394-159.891Zm-3.688,1.08c.72.81.81,1.439.27,1.439-1.439,0-3.778-3.688-3.688-5.848.09-1.529.18-1.439,1.08.54A25.883,25.883,0,0,0,213.706-158.812Zm-64.413.09c-.63,3.6-4.318,9.9-6.747,11.7-2.249,1.529-9.716,1.889-9.716.45,0-.54.99-.9,2.249-.9,5.488,0,9.9-4.5,12.235-12.415C148.573-164.209,150.1-163.31,149.293-158.722Zm-52.088,6.837c1.259,1.529,2.339,3.149,2.339,3.6,0,1.529-1.709.81-2.7-1.08a10.44,10.44,0,0,0-4.138-3.149c-3.778-1.529-3.868-2.159-.45-2.159C94.056-154.673,95.586-153.864,97.205-151.885Zm-4.138,1.439a9.733,9.733,0,0,1,2.429,3.868l.54,2.249-1.8-2.069a30.635,30.635,0,0,0-3.868-3.778c-1.619-1.349-1.8-1.709-.63-1.8A6.826,6.826,0,0,1,93.067-150.445Zm-2.879,1.889c1.259.81,3.329,4.678,2.789,5.218-.18.18-1.889-1.08-3.688-2.789-2.609-2.429-2.969-3.149-1.709-3.149A5.573,5.573,0,0,1,90.188-148.556Zm-5.848,3.329c0,.45-.81.99-1.889,1.169-1.8.27-2.429-.72-1.169-1.979C82.181-146.847,84.34-146.307,84.34-145.227Zm4.588.63a4.147,4.147,0,0,1,.09,2.339c-.54,1.439-2.969-.36-2.969-2.159C86.05-145.947,88.389-146.037,88.929-144.6Zm21.681.27c-.27.81-.72,1.259-.9.99-.27-.27-.18-.81.18-1.349C110.7-146.127,111.239-145.857,110.609-144.328Zm2.7,2.609c-.9,1.17-1.8,1.709-1.979,1.17-.18-.45.36-1.439,1.349-2.159C115.017-144.418,115.107-144.148,113.308-141.719Zm-32.476.99c.36,1.439.09,2.249-.72,2.249-1.529,0-2.249-1.349-1.619-3.059C79.3-143.7,80.382-143.248,80.832-140.729Zm53.8-.9c1.979,2.339.54,3.149-1.709.9-1.529-1.619-1.709-2.249-.72-2.249A3.932,3.932,0,0,1,134.629-141.629Zm-49.209.9c.09.45-.54.99-1.349,1.169-.99.18-1.619-.27-1.619-1.169C82.451-142.259,85.15-142.349,85.42-140.729Zm47.41,1.439c1.529,2.789.63,2.969-1.8.36-1.709-1.8-1.8-2.249-.63-2.249A3.259,3.259,0,0,1,132.83-139.29Zm-43.362.63c.18.63-.36,1.349-1.17,1.619-1.8.72-2.429.09-1.709-1.8C87.219-140.459,88.839-140.369,89.468-138.66Zm40.843,1.709c2.519,2.249,1.889,3.149-1.08,1.619a12.56,12.56,0,0,0-4.5-1.349c-1.08,0-1.619-.45-1.349-.9C124.284-139.02,128.512-138.66,130.311-136.951Zm-45.791.72c-.36,1.349-3.239,1.08-3.688-.27-.27-.81.27-1.169,1.709-.9C83.711-137.311,84.61-136.771,84.52-136.231Zm33.016-.72a6.1,6.1,0,0,1-1.349,2.429,7.732,7.732,0,0,0-1.349,3.958c0,1.169-.36,1.8-.9,1.529-1.349-.81-1.08-4.318.54-6.567C115.827-137.491,117.536-138.3,117.536-136.951Zm-29.6,3.868c-2.159,1.889-3.868,2.249-4.948,1.17-.27-.36.72-1.08,2.339-1.709C89.648-135.152,90.368-135.062,87.939-133.082Zm31.217.9a12.107,12.107,0,0,0-.45,4.948c.54,2.969-.99,2.879-2.069-.09a5.477,5.477,0,0,1,.45-4.948C118.886-135.691,120.415-135.691,119.156-132.183Zm7.377-1.889c0,.99-3.509,2.249-4.228,1.619-.27-.27-.18-.9.18-1.439C123.2-135.062,126.533-135.242,126.533-134.072Zm4.138,1.439c.9,2.159-.54,3.419-1.979,1.619a6.7,6.7,0,0,1-1.259-2.339C127.432-134.522,130.221-133.982,130.671-132.633ZM90.1-131.283c.36.54-.81,1.529-2.429,2.159-2.159.9-3.149.99-3.6.27-.36-.63.54-1.439,2.249-2.069a24.633,24.633,0,0,0,3.059-1.169A2.181,2.181,0,0,1,90.1-131.283Zm32.836,2.249c0,1.439-.54,2.249-1.349,2.249-1.349,0-1.889-2.789-.72-3.868C122.034-131.913,122.934-131.193,122.934-129.034Zm3.778.63c-1.349,1.349-2.339.36-1.619-1.619.45-1.169.81-1.349,1.619-.54S127.522-129.214,126.713-128.4Zm4.318,1.17c0,1.439-2.429,2.879-3.239,1.979-.63-.54,1.529-3.239,2.609-3.329C130.761-128.584,131.031-127.955,131.031-127.235Zm-44.081,2.7c0,.72-.36,1.349-.9,1.349-.45,0-.9-.63-.9-1.349s.45-1.349.9-1.349C86.59-125.886,86.949-125.256,86.949-124.536Zm4.5-.18c0,.63-.81,1.17-1.8,1.259-1.979.18-2.429-1.08-.63-1.8C90.908-126.065,91.447-125.976,91.447-124.716Zm35.085.27c0,.81-.63,1.259-1.529,1.08-2.249-.45-2.519-2.519-.36-2.519C125.723-125.886,126.533-125.346,126.533-124.446Zm5.758,1.529c-.63,1.709-5.218,3.419-7.107,2.789-2.249-.9-1.529-2.159,1.17-2.159a7.813,7.813,0,0,0,4.138-1.349C132.56-125.166,133.1-124.9,132.29-122.917Zm-39.853,4.138a6.107,6.107,0,0,1-3.059.45c-1.08-.09-2.519-.27-3.059-.27-.63-.09-1.17-.45-1.17-.9,0-1.08,7.557-1.709,8.007-.63C93.337-119.768,92.977-119.048,92.437-118.779Zm42.192-1.619c0,1.619-2.429,3.419-5.308,3.958-2.069.36-2.789.18-2.789-.9a1.517,1.517,0,0,1,1.619-1.349,7.16,7.16,0,0,0,3.419-1.349C133.64-121.567,134.629-121.747,134.629-120.4Zm2.7,6.657c0,1.439-7.827,4.318-8.546,3.059-.9-1.349.45-2.609,2.609-2.609a4.86,4.86,0,0,0,3.239-1.349C135.889-116.08,137.328-115.63,137.328-113.741Zm-49.479,2.609c0,.27-.36.72-.9.99-.45.27-.9.09-.9-.36a.985.985,0,0,1,.9-.99C87.489-111.492,87.849-111.312,87.849-111.132Zm51.278,3.239c0,.45-.9,1.08-1.979,1.439a5.777,5.777,0,0,0-2.7,1.619c-.54.72-.99.63-1.529-.27-.63-.99-.09-1.709,1.979-2.789C137.778-109.333,139.127-109.333,139.127-107.893Zm1.8,5.038c0,.72-.36,1.08-.9.81-.45-.27-.9,0-.9.72,0,.81-.9,1.259-2.249,1.259s-2.249-.45-2.249-1.17.81-1.259,1.709-1.259a3.148,3.148,0,0,0,2.339-.9C139.487-104.744,140.926-104.475,140.926-102.855Zm2.159,4.768c.72,1.169-1.439,2.7-4.678,3.329-2.249.45-2.879.27-2.879-.9,0-.9.81-1.439,2.159-1.439a3.894,3.894,0,0,0,2.789-.9A1.457,1.457,0,0,1,143.086-98.087Zm2.339,5.128a5.194,5.194,0,0,1-1.349,1.8c-.72.81-1.349,1.08-1.349.72,0-.45-.45-.27-1.08.36-1.529,1.529-5.218,1.349-5.218-.27,0-.9.9-1.349,2.609-1.349,1.529,0,2.969-.45,3.239-.9C142.906-93.589,145.425-93.859,145.425-92.959Zm-.45,6.927c-2.249,1.529-5.848,2.519-5.848,1.619,0-.45,1.349-1.169,2.969-1.709C146.234-87.382,146.954-87.382,144.975-86.032Zm2.249,3.329a8.182,8.182,0,0,1-3.6.81l-2.249-.09,2.249-.72a30.9,30.9,0,0,1,3.6-.81C148.393-83.6,148.393-83.514,147.224-82.7Zm3.6,2.159c0,.72-4.318,1.08-5.937.45-1.17-.45-.63-.72,2.159-.72C149.113-80.9,150.822-80.725,150.822-80.545Z" transform="translate(742.277 5008.976)" fill="#fff"/>
    <path id="Tracé_40" data-name="Tracé 40" d="M250-194.1c0,.45.63.9,1.439.9.72,0,1.08-.45.81-.9a1.71,1.71,0,0,0-1.439-.9A.831.831,0,0,0,250-194.1Z" transform="translate(720.466 4996.225)" fill="#fff"/>
    <path id="Tracé_41" data-name="Tracé 41" d="M131.9-139.645c-.63.81-.99,1.529-.81,1.8.27.18.9-.45,1.529-1.349C133.884-141.355,133.524-141.535,131.9-139.645Z" transform="translate(732.407 4990.799)" fill="#fff"/>
    <path id="Tracé_42" data-name="Tracé 42" d="M139.677-137.07c.36,1.169.72,1.619.99.9a2.451,2.451,0,0,0-.54-2.069C139.407-138.96,139.317-138.6,139.677-137.07Z" transform="translate(731.561 4990.563)" fill="#fff"/>
    <path id="Tracé_43" data-name="Tracé 43" d="M290.51-154.851c-2.609,7.2-4.948,13.674-5.218,14.394-.27.9.27,1.259,1.709,1.259,1.8,0,2.429-.63,3.059-2.969l.9-2.879h13.314l.9,2.879c.63,2.339,1.26,2.969,2.969,2.969,2.519,0,2.879,1.349-3.6-15.743-4.318-11.335-4.948-12.595-7.017-12.865C295.278-168.075,295.008-167.535,290.51-154.851Zm9.716-2.069c1.08,3.508,2.249,7.017,2.519,7.557.27.9-1.08,1.17-5.038,1.17-3.059,0-5.488-.27-5.488-.63,0-1.619,4.678-14.664,5.218-14.664C297.8-163.487,299.057-160.518,300.226-156.92Z" transform="translate(716.93 4993.499)" fill="#fff"/>
    <path id="Tracé_44" data-name="Tracé 44" d="M321.1-150.533c-.18,8.456.72,11.875,3.419,12.775,1.889.54,7.287-1.709,7.287-3.149a.9.9,0,0,1,.9-.9c.54,0,.9.81.9,1.8s.63,1.8,1.349,1.8c1.08,0,1.349-1.709,1.349-9.9s-.27-9.9-1.349-9.9-1.349,1.349-1.349,6.657c0,7.467-1.979,11.335-5.848,11.335-2.7,0-3.149-1.439-3.149-10.436,0-6.747-.18-7.557-1.709-7.557C321.457-158,321.188-157.19,321.1-150.533Z" transform="translate(713.332 4992.51)" fill="#fff"/>
    <path id="Tracé_45" data-name="Tracé 45" d="M350.149-153.592c1.709,2.339,3.149,4.678,3.149,5.128s-1.439,2.969-3.149,5.578c-2.969,4.318-3.059,4.678-1.349,4.678,1.17,0,2.429-1.08,3.419-2.789,3.239-5.848,3.239-5.848,5.937-1.349,1.619,2.7,3.059,4.138,4.228,4.138,1.979,0,1.979-.09-2.069-6.027a29.984,29.984,0,0,1-2.519-4.228,29.664,29.664,0,0,1,3.149-5.038c3.149-4.5,3.149-4.5.99-4.5-1.529,0-2.429.81-3.239,2.7-1.979,4.768-3.239,5.038-5.4.99-1.349-2.789-2.339-3.688-4.048-3.688H347Z" transform="translate(710.729 4992.51)" fill="#fff"/>
    <path id="Tracé_46" data-name="Tracé 46" d="M288.6-117.3c-2.7,2.879-3.6,6.027-3.6,12.685,0,9.176,4.5,14.754,11.245,14.214a6.427,6.427,0,0,1,4.678,1.17c3.149,2.7,7.287,4.228,13.224,4.858,5.668.54,5.938.54,5.938-1.349,0-1.709-.45-1.889-5.4-1.889-5.488,0-10.885-1.619-12.145-3.509-.36-.63.09-2.159.99-3.509,1.979-3.059,2.789-14.034,1.349-18.442-1.529-4.588-4.858-6.927-9.716-6.927C291.837-120,290.668-119.55,288.6-117.3Zm10.705,1.709c2.249,2.249,3.149,7.017,2.519,13.314-.63,6.117-1.889,7.737-3.868,4.948-1.889-2.7-3.6-1.529-1.8,1.259,1.889,2.7,1.8,3.059-.36,3.059-2.879,0-6.027-3.778-6.747-8.007C287.159-112.263,293.546-121.349,299.3-115.592Z" transform="translate(716.953 4988.695)" fill="#fff"/>
    <path id="Tracé_47" data-name="Tracé 47" d="M374.242-118.5a9.328,9.328,0,0,0-1.8,3.958c-.09,1.259-.81,2.339-1.349,2.339-2.339.27-2.429.54-.45,1.259,1.8.81,1.979,1.439,1.979,7.827,0,3.868.36,7.467.72,8.007.99,1.529,3.688,2.249,6.117,1.619,2.969-.72,2.7-2.7-.27-2.609h-2.519l-.27-7.467c-.27-6.927-.18-7.377,1.619-7.377.99,0,1.8-.45,1.8-.9,0-.54-.72-.9-1.529-.72-1.26.18-1.709-.54-2.069-3.688C375.772-119.944,375.682-120.034,374.242-118.5Z" transform="translate(708.497 4988.639)" fill="#fff"/>
    <path id="Tracé_48" data-name="Tracé 48" d="M346.868-112.785c-2.069.81-2.7,1.439-2.159,2.339.63.9,1.17.99,2.609.18,4.408-2.339,9.716-.45,9,3.239-.18,1.17-1.529,1.8-4.678,2.249-5.218.72-8.636,3.6-8.636,7.2,0,4.948,6.747,6.657,11.065,2.789,1.349-1.349,1.709-1.349,2.7-.09,1.349,1.709,4.048,2.7,4.678,1.709.18-.45-.18-1.259-.9-1.889-.99-.81-1.349-3.059-1.349-8.546,0-5.4-.36-7.737-1.349-8.546C355.954-113.685,350.2-114.045,346.868-112.785Zm9.446,11.7c.36,3.059-.81,4.678-4.408,5.937-2.249.81-2.969.63-4.5-.9-1.619-1.619-1.709-2.069-.54-3.778C349.927-104.509,355.865-105.228,356.314-101.09Z" transform="translate(711.131 4988.049)" fill="#fff"/>
    <path id="Tracé_49" data-name="Tracé 49" d="M398.2-110.4a24.869,24.869,0,0,1-4.048,3.6c-.27,0-.45-1.439-.45-3.149,0-2.159-.45-3.149-1.349-3.149-1.08,0-1.349,1.709-1.349,9.9,0,9.266.09,9.9,1.8,9.9,1.619,0,1.8-.63,1.8-5.937,0-5.038.27-6.207,2.069-7.647a8.377,8.377,0,0,1,4.048-1.709c1.619,0,1.979-.54,1.979-2.7,0-1.529-.18-2.7-.45-2.7A24.874,24.874,0,0,0,398.2-110.4Z" transform="translate(706.313 4988.094)" fill="#fff"/>
    <path id="Tracé_50" data-name="Tracé 50" d="M415.408-112.639c-2.7,1.439-4.408,5.4-4.408,10.076,0,7.107,5.038,11.065,11.785,9.266,4.858-1.349,4.408-2.789-.54-2.069-4.858.63-7.647-1.259-7.647-5.308v-2.519h6.747c6.207,0,6.747-.18,6.747-1.8,0-3.059-2.609-7.2-5.038-8.1C420-114.258,418.2-114.169,415.408-112.639Zm7.287,2.249a6.223,6.223,0,0,1,1.8,3.6c0,1.619-.63,1.8-4.948,1.8s-4.948-.18-4.948-1.8c0-2.069,2.969-5.4,4.948-5.4A6.05,6.05,0,0,1,422.7-110.39Z" transform="translate(704.305 4988.082)" fill="#fff"/>
    <path id="Tracé_51" data-name="Tracé 51" d="M318.788-103.554c.27,8.906.45,9.626,2.339,10.436,1.619.72,2.789.63,4.948-.45,1.529-.81,2.789-1.889,2.789-2.339a.9.9,0,0,1,.9-.9c.54,0,.9.81.9,1.8s.63,1.8,1.349,1.8c1.08,0,1.349-1.709,1.349-9.9s-.27-9.9-1.349-9.9-1.349,1.349-1.349,6.657c0,7.467-1.979,11.335-5.848,11.335-2.7,0-3.149-1.439-3.149-10.436,0-6.567-.18-7.557-1.529-7.557C318.7-113,318.518-112.1,318.788-103.554Z" transform="translate(713.572 4987.993)" fill="#fff"/>
    <path id="Tracé_52" data-name="Tracé 52" d="M288.788-60.924c1.979,5.578,4.318,12.055,5.038,14.394,1.259,3.688,1.8,4.318,3.778,4.318,2.249,0,2.609-.72,7.377-14.214,2.7-7.737,4.588-14.3,4.138-14.394-2.159-.9-3.509,1.529-7.017,11.875-2.069,6.207-4.138,11.335-4.588,11.335a.831.831,0,0,1-.81-.9c0-.45-1.709-5.758-3.688-11.7-3.329-9.626-3.958-10.8-5.848-10.8H285.1Z" transform="translate(716.943 4983.777)" fill="#fff"/>
    <path id="Tracé_53" data-name="Tracé 53" d="M374.218-66.42a6.435,6.435,0,0,0-1.619,3.688c0,1.349-.54,1.979-1.8,1.979-.99,0-1.8.36-1.8.9,0,.45.81.9,1.8.9,1.619,0,1.8.63,1.8,7.647,0,6.927.18,7.737,2.069,8.906,2.249,1.529,6.927.9,6.927-.9,0-.72-.9-1.08-2.429-.99l-2.519.18-.27-7.467c-.27-6.927-.18-7.377,1.619-7.377.99,0,1.8-.45,1.8-.9,0-.54-.81-.9-1.709-.9-1.439,0-1.8-.72-2.069-3.688C375.747-68.04,375.747-68.13,374.218-66.42Z" transform="translate(708.521 4983.425)" fill="#fff"/>
    <path id="Tracé_54" data-name="Tracé 54" d="M321.336-60.633c-4.678,2.609-5.668,12.775-1.619,17.093,2.339,2.519,5.488,3.239,9.536,2.069,4.588-1.259,3.688-2.519-1.349-1.889-3.868.45-4.5.27-5.848-1.619a8.812,8.812,0,0,1-1.439-4.138c0-1.979.36-2.069,6.837-2.069h6.927l-.54-3.419C332.852-60.813,326.914-63.6,321.336-60.633Zm7.557,1.979a5.543,5.543,0,0,1,1.619,3.6c0,1.889-.36,2.069-4.948,2.069-4.318,0-4.948-.18-4.948-1.8,0-2.159,3.059-5.4,5.128-5.4A5.4,5.4,0,0,1,328.893-58.654Z" transform="translate(713.722 4982.855)" fill="#fff"/>
    <path id="Tracé_55" data-name="Tracé 55" d="M346.619-61.274C345.18-61,345-59.745,345-51.109c0,9.176.09,9.806,1.8,9.806,1.619,0,1.8-.63,1.8-7.107,0-6.387.18-7.287,2.339-9.446,4.858-4.858,6.927-1.979,6.477,9-.27,6.747-.09,7.557,1.349,7.557,1.349,0,1.529-1.08,1.529-9.266,0-6.027-.36-9.626-1.08-10.346-1.709-1.709-4.858-1.259-7.827,1.17l-2.7,2.339-.27-2.069C348.239-60.915,347.609-61.454,346.619-61.274Z" transform="translate(710.93 4982.868)" fill="#fff"/>
    <path id="Tracé_56" data-name="Tracé 56" d="M391.933-60.619c-3.149,2.339-2.429,6.567,1.619,9.176,6.477,4.138,6.837,4.5,5.758,6.3-1.169,1.889-4.948,2.609-7.467,1.259-1.259-.72-1.8-.63-2.249.36-.27.9.45,1.529,2.609,2.159,5.578,1.529,10.346-.99,10.346-5.308,0-2.7-1.8-4.588-6.117-6.3-3.868-1.529-5.128-3.868-3.239-5.758,1.619-1.619,3.419-1.8,5.758-.54,1.619.9,3.6-.36,2.429-1.529C400.03-62.059,393.822-61.969,391.933-60.619Z" transform="translate(706.459 4982.843)" fill="#fff"/>
  </g>
</svg>
