<?xml version="1.0" encoding="utf-8"?>
<!-- Generator: Adobe Illustrator 25.2.0, SVG Export Plug-In . SVG Version: 6.00 Build 0)  -->
<svg version="1.1" id="Calque_1" xmlns="http://www.w3.org/2000/svg" xmlns:xlink="http://www.w3.org/1999/xlink" x="0px" y="0px"
	 viewBox="0 0 160.6 120.4" style="enable-background:new 0 0 160.6 120.4;" xml:space="preserve">
<style type="text/css">
	.st0{fill:#FFFFFF;}
	.st1{clip-path:url(#SVGID_2_);fill:#FFD500;}
	.st2{clip-path:url(#SVGID_4_);fill:#1D1D1B;}
	.st3{clip-path:url(#SVGID_6_);fill:#1D1D1B;}
	.st4{clip-path:url(#SVGID_8_);fill:#1D1D1B;}
	.st5{clip-path:url(#SVGID_10_);fill:#1D1D1B;}
	.st6{clip-path:url(#SVGID_12_);fill:#1D1D1B;}
	.st7{clip-path:url(#SVGID_14_);fill:#1D1D1B;}
	.st8{clip-path:url(#SVGID_16_);fill:#1D1D1B;}
	.st9{clip-path:url(#SVGID_18_);fill:#1D1D1B;}
	.st10{clip-path:url(#SVGID_20_);fill:#1D1D1B;}
	.st11{clip-path:url(#SVGID_22_);fill:#1D1D1B;}
	.st12{clip-path:url(#SVGID_24_);fill:#1D1D1B;}
	.st13{clip-path:url(#SVGID_26_);fill:#1D1D1B;}
	.st14{clip-path:url(#SVGID_28_);fill:#1D1D1B;}
	.st15{clip-path:url(#SVGID_30_);fill:#1D1D1B;}
	.st16{clip-path:url(#SVGID_32_);fill:#1D1D1B;}
	.st17{clip-path:url(#SVGID_34_);fill:#1D1D1B;}
	.st18{clip-path:url(#SVGID_36_);fill:#1D1D1B;}
	.st19{clip-path:url(#SVGID_38_);fill:#1D1D1B;}
	.st20{clip-path:url(#SVGID_40_);fill:#1D1D1B;}
	.st21{clip-path:url(#SVGID_42_);fill:#1D1D1B;}
	.st22{clip-path:url(#SVGID_44_);fill:#1D1D1B;}
	.st23{clip-path:url(#SVGID_46_);fill:#1D1D1B;}
	.st24{clip-path:url(#SVGID_48_);fill:#1D1D1B;}
	.st25{clip-path:url(#SVGID_50_);fill:#1D1D1B;}
	.st26{clip-path:url(#SVGID_52_);fill:#1D1D1B;}
	.st27{clip-path:url(#SVGID_54_);fill:#1D1D1B;}
	.st28{clip-path:url(#SVGID_56_);fill:#1D1D1B;}
	.st29{clip-path:url(#SVGID_58_);fill:#1D1D1B;}
	.st30{clip-path:url(#SVGID_60_);fill:#1D1D1B;}
	.st31{clip-path:url(#SVGID_62_);fill:#1D1D1B;}
	.st32{clip-path:url(#SVGID_64_);fill:#1D1D1B;}
	.st33{clip-path:url(#SVGID_66_);fill:#1D1D1B;}
	.st34{clip-path:url(#SVGID_68_);fill:#1D1D1B;}
	.st35{clip-path:url(#SVGID_70_);fill:#636362;}
	.st36{clip-path:url(#SVGID_72_);fill:#636362;}
	.st37{clip-path:url(#SVGID_74_);fill:#636362;}
	.st38{clip-path:url(#SVGID_76_);fill:#636362;}
	.st39{clip-path:url(#SVGID_78_);fill:#636362;}
	.st40{clip-path:url(#SVGID_80_);fill:#636362;}
	.st41{clip-path:url(#SVGID_82_);fill:#636362;}
	.st42{clip-path:url(#SVGID_84_);fill:#636362;}
	.st43{clip-path:url(#SVGID_86_);fill:#636362;}
	.st44{clip-path:url(#SVGID_88_);fill:#636362;}
	.st45{clip-path:url(#SVGID_90_);fill:#636362;}
	.st46{clip-path:url(#SVGID_92_);fill:#636362;}
	.st47{clip-path:url(#SVGID_94_);fill:#636362;}
</style>
<g>
	<path class="st0" d="M0,0v115.8c0,0,0,5.9,7.4,4.4l145.8-29.4c0,0,7.4-1.5,7.4-7.4V0H0z"/>
</g>
<g>
	<g>
		<defs>
			<rect id="SVGID_1_" x="16.1" y="31" width="128.5" height="40.2"/>
		</defs>
		<clipPath id="SVGID_2_">
			<use xlink:href="#SVGID_1_"  style="overflow:visible;"/>
		</clipPath>
		<path class="st1" d="M60.4,57.4c6.9,0,12.4-5.6,12.4-12.4c0-6.9-5.5-12.4-12.4-12.4S48,38.2,48,45C47.9,51.9,53.5,57.4,60.4,57.4"
			/>
	</g>
	<g>
		<defs>
			<rect id="SVGID_3_" x="16.1" y="31" width="128.5" height="40.2"/>
		</defs>
		<clipPath id="SVGID_4_">
			<use xlink:href="#SVGID_3_"  style="overflow:visible;"/>
		</clipPath>
		<path class="st2" d="M24.5,34.2c-0.7,6.5-0.9,12.9-1,21.8H16c0.8-7.2,1.1-14.5,1.2-21.8H24.5z"/>
	</g>
	<g>
		<defs>
			<rect id="SVGID_5_" x="16.1" y="31" width="128.5" height="40.2"/>
		</defs>
		<clipPath id="SVGID_6_">
			<use xlink:href="#SVGID_5_"  style="overflow:visible;"/>
		</clipPath>
		<path class="st3" d="M25.9,50.8c2.3,0.8,4.7,1.6,7.2,1.6c1.6,0,3.8-0.4,3.8-2.3c0-3.1-9.6-5.4-9.6-10.5c0-3.6,2.9-6,9.6-6
			c2.5,0,5,0.3,7.5,0.7l0.3,4.5c-1.7-0.6-3.5-1.1-5.5-1.1c-2.1,0-4.2,0.2-4.2,2.1c0,2.7,9.5,5.4,9.5,10.7c0,4.5-5.8,5.9-10,5.9
			c-2.7,0-5.4-0.4-8.1-0.9L25.9,50.8z"/>
	</g>
	<g>
		<defs>
			<rect id="SVGID_7_" x="16.1" y="31" width="128.5" height="40.2"/>
		</defs>
		<clipPath id="SVGID_8_">
			<use xlink:href="#SVGID_7_"  style="overflow:visible;"/>
		</clipPath>
		<path class="st4" d="M86.4,51l-0.1,0.2l6.9-17h7.5c-3.9,7.2-7.4,14.4-10.9,21.8h-7.6c-2.7-7.3-5.8-14.5-8.8-21.8h7.2L86.4,51z"/>
	</g>
	<g>
		<defs>
			<rect id="SVGID_9_" x="16.1" y="31" width="128.5" height="40.2"/>
		</defs>
		<clipPath id="SVGID_10_">
			<use xlink:href="#SVGID_9_"  style="overflow:visible;"/>
		</clipPath>
		<path class="st5" d="M105.6,45.4v0.7c0,4,3.2,6.3,7.7,6.3c2.9,0,5.6-0.6,8.4-1.4l-0.9,4.6c-2.7,0.5-5.4,0.8-8.2,0.8
			c-13,0-14-7.6-14-10.6c0-4,1.8-12.2,13.6-12.2c6.8,0,11.8,3,11.8,9.2c0,0.9-0.1,1.8-0.3,2.5h-18.1V45.4z M105.6,44.8
			c0,0,4.6-2.2,11.3-2.2c0.2,0,0.3-0.1,0.3-0.1c0-3.4-1.4-5.2-5.2-5.2c-3.5,0-5.8,2.3-6.2,5.2L105.6,44.8z"/>
	</g>
	<g>
		<defs>
			<rect id="SVGID_11_" x="16.1" y="31" width="128.5" height="40.2"/>
		</defs>
		<clipPath id="SVGID_12_">
			<use xlink:href="#SVGID_11_"  style="overflow:visible;"/>
		</clipPath>
		<path class="st6" d="M132.3,38.4L132.3,38.4c1.4-2.6,3.7-4.7,6.9-4.7c0.8,0,1.8,0.1,2.5,0.3l-0.2,5.1c-0.9-0.2-1.8-0.4-2.7-0.4
			c-3.6,0-5.7,2.1-6.4,5.1c-0.6,2.4-0.6,7-0.6,9.5V56h-7c0.5-6.2,1-12,1-21.8h6.7L132.3,38.4z"/>
	</g>
	<g>
		<defs>
			<rect id="SVGID_13_" x="16.1" y="31" width="128.5" height="40.2"/>
		</defs>
		<clipPath id="SVGID_14_">
			<use xlink:href="#SVGID_13_"  style="overflow:visible;"/>
		</clipPath>
		<path class="st7" d="M55,54.8c0.3,0.1,0.6,0.1,0.9,0.2l1.6-0.3c-0.2-0.1-0.4-0.2-0.6-0.3L55,54.8z"/>
	</g>
	<g>
		<defs>
			<rect id="SVGID_15_" x="16.1" y="31" width="128.5" height="40.2"/>
		</defs>
		<clipPath id="SVGID_16_">
			<use xlink:href="#SVGID_15_"  style="overflow:visible;"/>
		</clipPath>
		<path class="st8" d="M52.7,54.1c0.2,0.1,0.3,0.1,0.5,0.2l2.7-0.6c-0.2-0.1-0.3-0.2-0.5-0.3L52.7,54.1z"/>
	</g>
	<g>
		<defs>
			<rect id="SVGID_17_" x="16.1" y="31" width="128.5" height="40.2"/>
		</defs>
		<clipPath id="SVGID_18_">
			<use xlink:href="#SVGID_17_"  style="overflow:visible;"/>
		</clipPath>
		<path class="st9" d="M54.3,52.3L51,53.2c0.1,0.1,0.3,0.1,0.4,0.2l3.3-0.7C54.6,52.6,54.5,52.5,54.3,52.3"/>
	</g>
	<g>
		<defs>
			<rect id="SVGID_19_" x="16.1" y="31" width="128.5" height="40.2"/>
		</defs>
		<clipPath id="SVGID_20_">
			<use xlink:href="#SVGID_19_"  style="overflow:visible;"/>
		</clipPath>
		<path class="st10" d="M49.6,52.3c0.1,0.1,0.2,0.2,0.3,0.2l3.9-0.9c-0.1-0.1-0.2-0.3-0.3-0.4L49.6,52.3z"/>
	</g>
	<g>
		<defs>
			<rect id="SVGID_21_" x="16.1" y="31" width="128.5" height="40.2"/>
		</defs>
		<clipPath id="SVGID_22_">
			<use xlink:href="#SVGID_21_"  style="overflow:visible;"/>
		</clipPath>
		<path class="st11" d="M48.4,51.4c0.1,0.1,0.2,0.2,0.3,0.2l4.3-1c-0.1-0.1-0.2-0.3-0.3-0.4L48.4,51.4z"/>
	</g>
	<g>
		<defs>
			<rect id="SVGID_23_" x="16.1" y="31" width="128.5" height="40.2"/>
		</defs>
		<clipPath id="SVGID_24_">
			<use xlink:href="#SVGID_23_"  style="overflow:visible;"/>
		</clipPath>
		<path class="st12" d="M46.6,49.2c0.1,0.1,0.1,0.2,0.2,0.3l5.1-1.1c-0.1-0.2-0.1-0.4-0.2-0.6L46.6,49.2z"/>
	</g>
	<g>
		<defs>
			<rect id="SVGID_25_" x="16.1" y="31" width="128.5" height="40.2"/>
		</defs>
		<clipPath id="SVGID_26_">
			<use xlink:href="#SVGID_25_"  style="overflow:visible;"/>
		</clipPath>
		<path class="st13" d="M47.4,50.4c0.1,0.1,0.1,0.1,0.2,0.2l4.7-1c-0.1-0.2-0.1-0.3-0.2-0.4L47.4,50.4z"/>
	</g>
	<g>
		<defs>
			<rect id="SVGID_27_" x="16.1" y="31" width="128.5" height="40.2"/>
		</defs>
		<clipPath id="SVGID_28_">
			<use xlink:href="#SVGID_27_"  style="overflow:visible;"/>
		</clipPath>
		<path class="st14" d="M46,48.2c0.1,0.1,0.1,0.2,0.2,0.3l5.4-1.2c0-0.2-0.1-0.4-0.1-0.6L46,48.2z"/>
	</g>
	<g>
		<defs>
			<rect id="SVGID_29_" x="16.1" y="31" width="128.5" height="40.2"/>
		</defs>
		<clipPath id="SVGID_30_">
			<use xlink:href="#SVGID_29_"  style="overflow:visible;"/>
		</clipPath>
		<path class="st15" d="M51.2,45.4L45.5,47c0,0.1,0.1,0.3,0.1,0.4l5.7-1.3c0-0.1,0-0.1,0-0.1C51.3,45.8,51.3,45.6,51.2,45.4"/>
	</g>
	<g>
		<defs>
			<rect id="SVGID_31_" x="16.1" y="31" width="128.5" height="40.2"/>
		</defs>
		<clipPath id="SVGID_32_">
			<use xlink:href="#SVGID_31_"  style="overflow:visible;"/>
		</clipPath>
		<path class="st16" d="M45.1,45.8c0,0.1,0.1,0.3,0.1,0.4l6-1.4c0-0.3,0-0.5,0-0.8L45.1,45.8z"/>
	</g>
	<g>
		<defs>
			<rect id="SVGID_33_" x="16.1" y="31" width="128.5" height="40.2"/>
		</defs>
		<clipPath id="SVGID_34_">
			<use xlink:href="#SVGID_33_"  style="overflow:visible;"/>
		</clipPath>
		<path class="st17" d="M45,44.6c0,0.1,0,0.1,0,0.2c0,0.1,0,0.2,0,0.3l6.3-1.5c0-0.3,0.1-0.6,0.1-0.9L45,44.6z"/>
	</g>
	<g>
		<defs>
			<rect id="SVGID_35_" x="16.1" y="31" width="128.5" height="40.2"/>
		</defs>
		<clipPath id="SVGID_36_">
			<use xlink:href="#SVGID_35_"  style="overflow:visible;"/>
		</clipPath>
		<path class="st18" d="M44.9,43.2c0,0.2,0,0.4,0,0.6l6.6-1.5c0.1-0.3,0.2-0.7,0.3-1L44.9,43.2z"/>
	</g>
	<g>
		<defs>
			<rect id="SVGID_37_" x="16.1" y="31" width="128.5" height="40.2"/>
		</defs>
		<clipPath id="SVGID_38_">
			<use xlink:href="#SVGID_37_"  style="overflow:visible;"/>
		</clipPath>
		<path class="st19" d="M45.1,41.9c0,0.2-0.1,0.5-0.1,0.7l7-1.5c0.2-0.4,0.4-0.8,0.6-1.2L45.1,41.9z"/>
	</g>
	<g>
		<defs>
			<rect id="SVGID_39_" x="16.1" y="31" width="128.5" height="40.2"/>
		</defs>
		<clipPath id="SVGID_40_">
			<use xlink:href="#SVGID_39_"  style="overflow:visible;"/>
		</clipPath>
		<path class="st20" d="M57.9,31.4c-4.5,0.5-8.4,2.7-10.7,5.8l2.3-0.5L47,37.4c-0.3,0.4-0.5,0.8-0.7,1.2l4.6-1L46.1,39
			c-0.2,0.3-0.3,0.6-0.4,1l6.6-1.4l-6.8,1.9c-0.1,0.3-0.2,0.5-0.2,0.8l7.4-1.6c1.9-3.4,5.5-5.8,9.8-6.3c2.3-0.3,4.6,0.1,6.5,0.9
			C66.1,32.1,62.2,31,57.9,31.4"/>
	</g>
	<g>
		<defs>
			<rect id="SVGID_41_" x="16.1" y="31" width="128.5" height="40.2"/>
		</defs>
		<clipPath id="SVGID_42_">
			<use xlink:href="#SVGID_41_"  style="overflow:visible;"/>
		</clipPath>
		<path class="st21" d="M65.5,34.8c-0.3-0.1-0.6-0.1-0.9-0.2L63.1,35c0.2,0.1,0.4,0.2,0.6,0.3L65.5,34.8z"/>
	</g>
	<g>
		<defs>
			<rect id="SVGID_43_" x="16.1" y="31" width="128.5" height="40.2"/>
		</defs>
		<clipPath id="SVGID_44_">
			<use xlink:href="#SVGID_43_"  style="overflow:visible;"/>
		</clipPath>
		<path class="st22" d="M67.8,35.5c-0.2-0.1-0.3-0.1-0.5-0.2l-2.7,0.6c0.2,0.1,0.3,0.2,0.4,0.3L67.8,35.5z"/>
	</g>
	<g>
		<defs>
			<rect id="SVGID_45_" x="16.1" y="31" width="128.5" height="40.2"/>
		</defs>
		<clipPath id="SVGID_46_">
			<use xlink:href="#SVGID_45_"  style="overflow:visible;"/>
		</clipPath>
		<path class="st23" d="M66.1,37.2l3.3-0.9c-0.1-0.1-0.2-0.1-0.4-0.2l-3.4,0.8C65.9,37,66,37.1,66.1,37.2"/>
	</g>
	<g>
		<defs>
			<rect id="SVGID_47_" x="16.1" y="31" width="128.5" height="40.2"/>
		</defs>
		<clipPath id="SVGID_48_">
			<use xlink:href="#SVGID_47_"  style="overflow:visible;"/>
		</clipPath>
		<path class="st24" d="M70.9,37.2c-0.1-0.1-0.2-0.1-0.3-0.2l-3.9,0.9c0.1,0.1,0.2,0.3,0.4,0.4L70.9,37.2z"/>
	</g>
	<g>
		<defs>
			<rect id="SVGID_49_" x="16.1" y="31" width="128.5" height="40.2"/>
		</defs>
		<clipPath id="SVGID_50_">
			<use xlink:href="#SVGID_49_"  style="overflow:visible;"/>
		</clipPath>
		<path class="st25" d="M72.1,38.2c-0.1-0.1-0.2-0.2-0.3-0.3l-4.3,1c0.1,0.1,0.2,0.3,0.3,0.4L72.1,38.2z"/>
	</g>
	<g>
		<defs>
			<rect id="SVGID_51_" x="16.1" y="31" width="128.5" height="40.2"/>
		</defs>
		<clipPath id="SVGID_52_">
			<use xlink:href="#SVGID_51_"  style="overflow:visible;"/>
		</clipPath>
		<path class="st26" d="M73.9,40.3c-0.1-0.1-0.1-0.2-0.2-0.3l-5.1,1.1c0.1,0.2,0.1,0.4,0.2,0.6L73.9,40.3z"/>
	</g>
	<g>
		<defs>
			<rect id="SVGID_53_" x="16.1" y="31" width="128.5" height="40.2"/>
		</defs>
		<clipPath id="SVGID_54_">
			<use xlink:href="#SVGID_53_"  style="overflow:visible;"/>
		</clipPath>
		<path class="st27" d="M73,39.2c-0.1-0.1-0.1-0.2-0.2-0.3L68.1,40c0.1,0.2,0.1,0.3,0.2,0.5L73,39.2z"/>
	</g>
	<g>
		<defs>
			<rect id="SVGID_55_" x="16.1" y="31" width="128.5" height="40.2"/>
		</defs>
		<clipPath id="SVGID_56_">
			<use xlink:href="#SVGID_55_"  style="overflow:visible;"/>
		</clipPath>
		<path class="st28" d="M74.5,41.4c-0.1-0.1-0.1-0.2-0.2-0.3l-5.4,1.2c0,0.2,0.1,0.4,0.1,0.6L74.5,41.4z"/>
	</g>
	<g>
		<defs>
			<rect id="SVGID_57_" x="16.1" y="31" width="128.5" height="40.2"/>
		</defs>
		<clipPath id="SVGID_58_">
			<use xlink:href="#SVGID_57_"  style="overflow:visible;"/>
		</clipPath>
		<path class="st29" d="M69.2,44.2l5.8-1.6c0-0.1-0.1-0.3-0.1-0.4l-5.7,1.3v0.1C69.2,43.8,69.2,44,69.2,44.2"/>
	</g>
	<g>
		<defs>
			<rect id="SVGID_59_" x="16.1" y="31" width="128.5" height="40.2"/>
		</defs>
		<clipPath id="SVGID_60_">
			<use xlink:href="#SVGID_59_"  style="overflow:visible;"/>
		</clipPath>
		<path class="st30" d="M75.3,43.8c0-0.2-0.1-0.3-0.1-0.4l-6,1.4c0,0.3,0,0.5,0,0.8L75.3,43.8z"/>
	</g>
	<g>
		<defs>
			<rect id="SVGID_61_" x="16.1" y="31" width="128.5" height="40.2"/>
		</defs>
		<clipPath id="SVGID_62_">
			<use xlink:href="#SVGID_61_"  style="overflow:visible;"/>
		</clipPath>
		<path class="st31" d="M75.5,45.1c0-0.1,0-0.1,0-0.2c0-0.1,0-0.2,0-0.3L69.2,46c0,0.3-0.1,0.6-0.1,0.9L75.5,45.1z"/>
	</g>
	<g>
		<defs>
			<rect id="SVGID_63_" x="16.1" y="31" width="128.5" height="40.2"/>
		</defs>
		<clipPath id="SVGID_64_">
			<use xlink:href="#SVGID_63_"  style="overflow:visible;"/>
		</clipPath>
		<path class="st32" d="M75.5,46.4c0-0.2,0-0.4,0-0.6l-6.6,1.4c-0.1,0.3-0.2,0.7-0.3,1L75.5,46.4z"/>
	</g>
	<g>
		<defs>
			<rect id="SVGID_65_" x="16.1" y="31" width="128.5" height="40.2"/>
		</defs>
		<clipPath id="SVGID_66_">
			<use xlink:href="#SVGID_65_"  style="overflow:visible;"/>
		</clipPath>
		<path class="st33" d="M75.4,47.7c0.1-0.2,0.1-0.5,0.1-0.7l-7,1.6c-0.2,0.4-0.3,0.8-0.5,1.2L75.4,47.7z"/>
	</g>
	<g>
		<defs>
			<rect id="SVGID_67_" x="16.1" y="31" width="128.5" height="40.2"/>
		</defs>
		<clipPath id="SVGID_68_">
			<use xlink:href="#SVGID_67_"  style="overflow:visible;"/>
		</clipPath>
		<path class="st34" d="M62.5,58.2c4.6-0.5,8.4-2.7,10.8-5.8L71,52.9l2.5-0.7c0.3-0.4,0.5-0.8,0.7-1.2l-4.6,1l4.8-1.4
			c0.2-0.3,0.3-0.6,0.4-1L68.3,51l6.8-1.9c0.1-0.3,0.2-0.5,0.2-0.8l-7.4,1.6c-1.9,3.4-5.5,5.9-9.9,6.3c-2.3,0.2-4.6-0.1-6.5-0.9
			C54.3,57.4,58.3,58.6,62.5,58.2"/>
	</g>
	<g>
		<defs>
			<rect id="SVGID_69_" x="16.1" y="31" width="128.5" height="40.2"/>
		</defs>
		<clipPath id="SVGID_70_">
			<use xlink:href="#SVGID_69_"  style="overflow:visible;"/>
		</clipPath>
		<rect x="16.1" y="70.2" class="st35" width="128.5" height="1.1"/>
	</g>
	<g>
		<defs>
			<rect id="SVGID_71_" x="16.1" y="31" width="128.5" height="40.2"/>
		</defs>
		<clipPath id="SVGID_72_">
			<use xlink:href="#SVGID_71_"  style="overflow:visible;"/>
		</clipPath>
		<polygon class="st36" points="96.9,61 94.8,61 94.8,59.8 100.1,59.8 100.1,61 98.2,61 98.2,67.4 96.9,67.4 		"/>
	</g>
	<g>
		<defs>
			<rect id="SVGID_73_" x="16.1" y="31" width="128.5" height="40.2"/>
		</defs>
		<clipPath id="SVGID_74_">
			<use xlink:href="#SVGID_73_"  style="overflow:visible;"/>
		</clipPath>
		<rect x="99.7" y="63.5" class="st37" width="2.7" height="1.3"/>
	</g>
	<g>
		<defs>
			<rect id="SVGID_75_" x="16.1" y="31" width="128.5" height="40.2"/>
		</defs>
		<clipPath id="SVGID_76_">
			<use xlink:href="#SVGID_75_"  style="overflow:visible;"/>
		</clipPath>
		<path class="st38" d="M106.5,63.5h4.7v0.2c0,2.2-1.8,3.9-3.8,3.9c-2.1,0-3.9-1.7-3.9-4s1.8-4,3.9-4c1.8,0,3.1,1.3,3.4,2.4h-1.5
			c-0.3-0.5-1-1.1-1.9-1.1c-1.7,0-2.5,1.5-2.5,2.7c0,1.2,0.8,2.6,2.6,2.6c0.9,0,1.7-0.5,2.1-1.5h-3.1L106.5,63.5L106.5,63.5z"/>
	</g>
	<g>
		<defs>
			<rect id="SVGID_77_" x="16.1" y="31" width="128.5" height="40.2"/>
		</defs>
		<clipPath id="SVGID_78_">
			<use xlink:href="#SVGID_77_"  style="overflow:visible;"/>
		</clipPath>
		<path class="st39" d="M121.8,63.9h1.1c1.2,0,1.3,0.9,1.3,1.2c0,0.8-0.7,1-1.3,1h-1v-2.2H121.8z M120.5,67.4h2.3
			c0.5,0,1.4-0.1,1.9-0.5c0.4-0.3,0.9-0.9,0.9-1.8c0-1.3-0.7-1.7-1.2-1.9c0.2-0.1,0.8-0.5,0.8-1.5c0-0.5-0.2-1.1-0.6-1.4
			c-0.6-0.6-1.5-0.6-2.3-0.6h-1.7L120.5,67.4L120.5,67.4z M121.8,61h0.9c0.8,0,1.1,0.4,1.1,0.9c0,0.8-0.9,0.8-1.2,0.8h-0.8V61z"/>
	</g>
	<g>
		<defs>
			<rect id="SVGID_79_" x="16.1" y="31" width="128.5" height="40.2"/>
		</defs>
		<clipPath id="SVGID_80_">
			<use xlink:href="#SVGID_79_"  style="overflow:visible;"/>
		</clipPath>
		<rect x="133.2" y="59.8" class="st40" width="1.4" height="7.7"/>
	</g>
	<g>
		<defs>
			<rect id="SVGID_81_" x="16.1" y="31" width="128.5" height="40.2"/>
		</defs>
		<clipPath id="SVGID_82_">
			<use xlink:href="#SVGID_81_"  style="overflow:visible;"/>
		</clipPath>
		<path class="st41" d="M115.8,59.6c-2.2,0-4,1.8-4,4c0,2.2,1.8,4,4,4c2.3,0,4-1.8,4-4C119.8,61.4,118,59.6,115.8,59.6 M115.8,66.2
			c-1.4,0-2.6-1.2-2.6-2.7c0-1.4,1.2-2.7,2.6-2.7c1.5,0,2.7,1.2,2.7,2.7C118.5,65.1,117.2,66.2,115.8,66.2"/>
	</g>
	<g>
		<defs>
			<rect id="SVGID_83_" x="16.1" y="31" width="128.5" height="40.2"/>
		</defs>
		<clipPath id="SVGID_84_">
			<use xlink:href="#SVGID_83_"  style="overflow:visible;"/>
		</clipPath>
		<path class="st42" d="M125.5,67.4l3-7.7h1l3,7.7h-1.4l-0.7-1.9h-2.9l-0.7,1.9H125.5z M129.1,61.7L129.1,61.7l-1,2.5h1.9
			L129.1,61.7z"/>
	</g>
	<g>
		<defs>
			<rect id="SVGID_85_" x="16.1" y="31" width="128.5" height="40.2"/>
		</defs>
		<clipPath id="SVGID_86_">
			<use xlink:href="#SVGID_85_"  style="overflow:visible;"/>
		</clipPath>
		<polygon class="st43" points="135.9,59.8 137.2,59.8 140.4,64.8 140.4,59.8 141.7,59.8 141.7,67.4 140.5,67.4 137.2,62.1 
			137.2,67.4 135.9,67.4 		"/>
	</g>
	<g>
		<defs>
			<rect id="SVGID_87_" x="16.1" y="31" width="128.5" height="40.2"/>
		</defs>
		<clipPath id="SVGID_88_">
			<use xlink:href="#SVGID_87_"  style="overflow:visible;"/>
		</clipPath>
		<path class="st44" d="M74.3,65.2c0.1,0.7,0.8,1,1.3,1s1.1-0.4,1.1-0.9c0-0.8-0.6-1-1.5-1.4c-0.7-0.2-1.9-0.5-1.9-2.1
			c0-1.3,1-2.2,2.3-2.2c0.8,0,2.2,0.6,2.2,2.2h-1.3c-0.1-0.7-0.6-0.9-1-0.9c-0.4,0-1,0.3-1,0.8c0,0.7,0.7,0.9,1.4,1.2
			c0.6,0.2,2,0.6,2,2.3c0,1.6-1.3,2.5-2.4,2.5c-1,0-2.5-0.7-2.6-2.4L74.3,65.2L74.3,65.2z"/>
	</g>
	<g>
		<defs>
			<rect id="SVGID_89_" x="16.1" y="31" width="128.5" height="40.2"/>
		</defs>
		<clipPath id="SVGID_90_">
			<use xlink:href="#SVGID_89_"  style="overflow:visible;"/>
		</clipPath>
		<rect x="85.6" y="59.8" class="st45" width="1.3" height="7.7"/>
	</g>
	<g>
		<defs>
			<rect id="SVGID_91_" x="16.1" y="31" width="128.5" height="40.2"/>
		</defs>
		<clipPath id="SVGID_92_">
			<use xlink:href="#SVGID_91_"  style="overflow:visible;"/>
		</clipPath>
		<path class="st46" d="M77.9,67.4l3.1-7.7h1l3,7.7h-1.4l-0.7-2h-2.8l-0.7,2H77.9z M81.5,61.7L81.5,61.7l-1,2.5h1.9L81.5,61.7z"/>
	</g>
	<g>
		<defs>
			<rect id="SVGID_93_" x="16.1" y="31" width="128.5" height="40.2"/>
		</defs>
		<clipPath id="SVGID_94_">
			<use xlink:href="#SVGID_93_"  style="overflow:visible;"/>
		</clipPath>
		<polygon class="st47" points="88.3,59.8 89.6,59.8 92.8,64.8 92.8,59.8 94.1,59.8 94.1,67.4 92.9,67.4 89.6,62.1 89.6,67.4 
			88.3,67.4 		"/>
	</g>
</g>
</svg>
