<?xml version="1.0" encoding="utf-8"?>
<!-- Generator: Adobe Illustrator 25.2.0, SVG Export Plug-In . SVG Version: 6.00 Build 0)  -->
<svg version="1.1" id="Calque_1" xmlns="http://www.w3.org/2000/svg" xmlns:xlink="http://www.w3.org/1999/xlink" x="0px" y="0px"
	 viewBox="0 0 384 113" style="enable-background:new 0 0 384 113;" xml:space="preserve">
<style type="text/css">
	.st0{fill:#04A6DF;}
	.st1{fill:#1F3D7E;}
	.st2{fill:#1E5BA0;}
</style>
<g>
	<path class="st0" d="M131.1,90.3V64H109v26.3h-5.2V32.6h5.2V59h22.1V32.6h5.2v57.7H131.1z"/>
	<path class="st0" d="M156.8,90.3V32.6h32.5v4.9H162V59h22.1V64H162v21.4h27.3v4.9H156.8z"/>
	<path class="st0" d="M237.1,82.5c-0.7,1.7-1.7,3.2-3,4.5c-1.3,1.3-2.8,2.3-4.5,3c-1.7,0.7-3.6,1.1-5.5,1.1H220
		c-2,0-3.8-0.4-5.5-1.1c-1.7-0.7-3.2-1.7-4.5-3c-1.3-1.3-2.3-2.8-3-4.5c-0.7-1.7-1.1-3.6-1.1-5.5V46c0-2,0.4-3.8,1.1-5.5
		c0.7-1.7,1.7-3.2,3-4.5c1.3-1.3,2.8-2.3,4.5-3c1.7-0.7,3.6-1.1,5.5-1.1h4.1c2,0,3.8,0.4,5.5,1.1c1.7,0.7,3.2,1.8,4.5,3
		c1.3,1.3,2.3,2.8,3,4.5c0.7,1.7,1.1,3.6,1.1,5.5v31C238.2,78.9,237.8,80.7,237.1,82.5z M233,46c0-1.3-0.2-2.5-0.7-3.6
		c-0.5-1.1-1.1-2.1-2-2.9c-0.8-0.8-1.8-1.5-2.9-2c-1.1-0.5-2.3-0.7-3.6-0.7h-3.6c-1.3,0-2.5,0.2-3.6,0.7c-1.1,0.5-2.1,1.1-2.9,2
		c-0.8,0.8-1.5,1.8-2,2.9c-0.5,1.1-0.7,2.3-0.7,3.6v31c0,1.3,0.2,2.5,0.7,3.6c0.5,1.1,1.1,2.1,2,2.9c0.8,0.8,1.8,1.5,2.9,2
		c1.1,0.5,2.3,0.7,3.6,0.7h3.6c1.3,0,2.5-0.2,3.6-0.7c1.1-0.5,2.1-1.1,2.9-2c0.8-0.8,1.5-1.8,2-2.9c0.5-1.1,0.7-2.3,0.7-3.6V46z"/>
	<path class="st0" d="M289.6,76.9c0,2-0.4,3.8-1.2,5.5c-0.8,1.7-1.8,3.2-3.2,4.5s-2.9,2.3-4.6,3c-1.8,0.7-3.6,1.1-5.6,1.1h-4.1
		c-2,0-3.8-0.4-5.6-1.1c-1.8-0.7-3.3-1.7-4.6-3c-1.3-1.3-2.4-2.8-3.2-4.5c-0.8-1.7-1.2-3.6-1.2-5.5v-2.3l5.2-0.8v3.1
		c0,1.3,0.3,2.5,0.8,3.6c0.5,1.1,1.2,2.1,2.1,2.9c0.9,0.8,1.9,1.5,3.1,2c1.2,0.5,2.4,0.7,3.7,0.7h3.6c1.3,0,2.5-0.2,3.7-0.7
		c1.2-0.5,2.2-1.1,3.1-2c0.9-0.8,1.6-1.8,2.1-2.9c0.5-1.1,0.8-2.3,0.8-3.6v-1.7c0-2-0.4-3.6-1.2-4.9c-0.8-1.3-1.8-2.4-3.1-3.4
		c-1.3-0.9-2.7-1.7-4.4-2.4c-1.6-0.6-3.3-1.3-5-1.9c-1.7-0.6-3.4-1.4-5-2.1c-1.6-0.8-3.1-1.7-4.4-2.9c-1.3-1.2-2.3-2.6-3.1-4.3
		c-0.8-1.7-1.2-3.8-1.2-6.2V46c0-2,0.4-3.8,1.1-5.5c0.7-1.7,1.7-3.2,3-4.5c1.3-1.3,2.8-2.3,4.5-3c1.7-0.7,3.6-1.1,5.5-1.1h3.7
		c2,0,3.8,0.4,5.5,1.1c1.7,0.7,3.2,1.8,4.5,3c1.3,1.3,2.3,2.8,3,4.5c0.7,1.7,1.1,3.6,1.1,5.5v1.5l-5.2,0.8V46c0-1.3-0.2-2.5-0.7-3.6
		c-0.5-1.1-1.1-2.1-2-2.9c-0.8-0.8-1.8-1.5-2.9-2c-1.1-0.5-2.3-0.7-3.6-0.7h-3.2c-1.3,0-2.5,0.2-3.6,0.7c-1.1,0.5-2.1,1.1-2.9,2
		c-0.8,0.8-1.5,1.8-2,2.9c-0.5,1.1-0.7,2.3-0.7,3.6v1.1c0,1.9,0.4,3.4,1.2,4.7c0.8,1.3,1.8,2.3,3.1,3.2c1.3,0.9,2.7,1.7,4.4,2.3
		c1.6,0.7,3.3,1.3,5,2c1.7,0.7,3.4,1.4,5,2.3c1.6,0.8,3.1,1.8,4.4,3c1.3,1.2,2.3,2.6,3.1,4.4c0.8,1.7,1.2,3.8,1.2,6.3V76.9z"/>
	<path class="st0" d="M321.7,62.7v27.6h-5.2V62.8l-14.9-30.2h5.6l11.9,24l11.9-24h5.6L321.7,62.7z"/>
	<path class="st0" d="M383.7,76.9c0,2-0.4,3.8-1.2,5.5c-0.8,1.7-1.8,3.2-3.2,4.5c-1.3,1.3-2.9,2.3-4.6,3s-3.6,1.1-5.6,1.1H365
		c-2,0-3.8-0.4-5.6-1.1s-3.3-1.7-4.6-3c-1.3-1.3-2.4-2.8-3.2-4.5c-0.8-1.7-1.2-3.6-1.2-5.5v-2.3l5.2-0.8v3.1c0,1.3,0.3,2.5,0.8,3.6
		c0.5,1.1,1.2,2.1,2.1,2.9c0.9,0.8,1.9,1.5,3.1,2c1.2,0.5,2.4,0.7,3.7,0.7h3.6c1.3,0,2.5-0.2,3.7-0.7c1.2-0.5,2.2-1.1,3.1-2
		c0.9-0.8,1.6-1.8,2.1-2.9c0.5-1.1,0.8-2.3,0.8-3.6v-1.7c0-2-0.4-3.6-1.2-4.9c-0.8-1.3-1.8-2.4-3.1-3.4c-1.3-0.9-2.7-1.7-4.4-2.4
		c-1.6-0.6-3.3-1.3-5-1.9c-1.7-0.6-3.4-1.4-5-2.1c-1.6-0.8-3.1-1.7-4.4-2.9c-1.3-1.2-2.3-2.6-3.1-4.3c-0.8-1.7-1.2-3.8-1.2-6.2V46
		c0-2,0.4-3.8,1.1-5.5c0.7-1.7,1.7-3.2,3-4.5c1.3-1.3,2.8-2.3,4.5-3c1.7-0.7,3.6-1.1,5.5-1.1h3.7c2,0,3.8,0.4,5.5,1.1
		c1.7,0.7,3.2,1.8,4.5,3c1.3,1.3,2.3,2.8,3,4.5c0.7,1.7,1.1,3.6,1.1,5.5v1.5l-5.2,0.8V46c0-1.3-0.2-2.5-0.7-3.6
		c-0.5-1.1-1.1-2.1-2-2.9c-0.8-0.8-1.8-1.5-2.9-2c-1.1-0.5-2.3-0.7-3.6-0.7h-3.2c-1.3,0-2.5,0.2-3.6,0.7c-1.1,0.5-2.1,1.1-2.9,2
		c-0.8,0.8-1.5,1.8-2,2.9c-0.5,1.1-0.7,2.3-0.7,3.6v1.1c0,1.9,0.4,3.4,1.2,4.7c0.8,1.3,1.8,2.3,3.1,3.2c1.3,0.9,2.7,1.7,4.4,2.3
		c1.6,0.7,3.3,1.3,5,2c1.7,0.7,3.4,1.4,5,2.3c1.6,0.8,3.1,1.8,4.4,3c1.3,1.2,2.3,2.6,3.1,4.4c0.8,1.7,1.2,3.8,1.2,6.3V76.9z"/>
</g>
<polygon class="st0" points="58.8,30.3 58.8,53 49,58.6 39.2,64.3 29.4,58.6 19.6,53 19.6,30.3 0,19 0,109.6 19.6,98.3 19.6,75.6 
	39.2,86.9 58.8,75.6 58.8,98.3 78.4,109.6 78.4,19 "/>
<polygon class="st1" points="39.2,64.3 39.2,86.9 58.8,75.6 58.8,98.3 78.4,109.6 78.4,19 58.8,30.3 58.8,53 "/>
<polygon class="st0" points="39.5,25.6 48.4,20.4 48.4,10.1 39.5,15.2 "/>
<polygon class="st1" points="30.5,10.1 30.5,20.4 39.5,25.6 39.5,15.2 "/>
<polygon class="st2" points="39.5,4.9 30.5,10.1 30.5,10.1 39.5,15.2 48.4,10.1 48.4,10.1 "/>
</svg>
