<svg xmlns="http://www.w3.org/2000/svg" width="121.96" height="121.95" viewBox="0 0 121.96 121.95">
  <path id="paper-plane-regular" d="M104.835,1.567,5.75,58.708a11.433,11.433,0,0,0,1.358,20.46L34.332,90.434v20.1c0,11.052,14.1,15.6,20.627,6.812l10.433-14.077,26.653,11a11.457,11.457,0,0,0,15.673-8.837l14.148-92.226a11.455,11.455,0,0,0-17.03-11.647Zm-59.07,108.97V95.15l8.718,3.6ZM96.4,103.7,59.77,88.576,93.164,40.391a3.818,3.818,0,0,0-5.645-5.05l-50.376,43.9L11.466,68.616l99.085-57.165Z" transform="translate(-0.043 -0.025)" fill="#f2e9f0"/>
</svg>
