<svg xmlns="http://www.w3.org/2000/svg" width="236.388" height="374.218" viewBox="0 0 236.388 374.218">
  <g id="Groupe_211" data-name="Groupe 211" transform="translate(-841.115 -322.828)">
    <g id="Groupe_1" data-name="Groupe 1" transform="translate(928.644 322.828)">
      <path id="Tracé_1" data-name="Tracé 1" d="M194.3,120.548l-1.071-.253-1.071.253A38.326,38.326,0,0,0,162.566,158v98.016l26.013,28.009v40.966l9.306-10.018V284.021L223.9,256.012V158A38.327,38.327,0,0,0,194.3,120.548Zm-5.723,149.8-16.707-17.99V225.8a29.062,29.062,0,0,1,16.707,26.4Zm0-43.309a38.294,38.294,0,0,0-16.707-11.254V177.373a29.062,29.062,0,0,1,16.707,26.4Zm26.013,25.319-16.707,17.99v-39.59a29.064,29.064,0,0,1,16.707-26.4Zm0-58.02a38.292,38.292,0,0,0-16.707,11.254v-1.815a38.324,38.324,0,0,0-26.013-36.419V158a29.052,29.052,0,0,1,21.36-28.117A29.052,29.052,0,0,1,214.592,158Z" transform="translate(-162.566 -120.295)" fill="#fff"/>
    </g>
    <g id="Groupe_11" data-name="Groupe 11" transform="translate(841.115 552.739)">
      <g id="Groupe_9" data-name="Groupe 9">
        <path id="Tracé_62" data-name="Tracé 62" d="M317.084,257.866h-6.5v25.862h4.032v-6.161h2.471c7.113,0,11.105-3.88,11.105-9.85C328.19,261.708,324.234,257.866,317.084,257.866Zm-.152,16.164h-2.32V261.4h2.32c5.059,0,7.15,2.4,7.15,6.314S322.028,274.03,316.932,274.03Z" transform="translate(-308.26 -251.239)" fill="#979797"/>
        <path id="Tracé_63" data-name="Tracé 63" d="M336.27,277.073H338.7c.27,0,.54-.019.81-.036A12.366,12.366,0,0,0,350,283.987v-3.341a8.585,8.585,0,0,1-6.653-4.385l1.33-.52c3.383-1.483,5.171-4.222,5.171-8.215,0-5.933-3.992-9.66-11.143-9.66h-6.466v25.862h4.032Zm0-15.67h2.282c5.057,0,7.187,2.244,7.187,6.123,0,3.842-2.055,6.086-7.187,6.086H336.27Z" transform="translate(-306.254 -251.239)" fill="#979797"/>
        <path id="Tracé_64" data-name="Tracé 64" d="M381.963,280.191H369.033v-7.336h10.991v-3.46H369.033V261.4h12.4v-3.537H365v25.862h16.962Z" transform="translate(-303.22 -251.239)" fill="#979797"/>
        <rect id="Rectangle_14" data-name="Rectangle 14" width="3.993" height="22.32" transform="translate(50.292 6.627)" fill="#979797"/>
        <path id="Tracé_65" data-name="Tracé 65" d="M396.021,284.07c5.592,0,9.851-3.157,9.851-9.431V257.866h-3.994V274.41c0,4.182-2.092,6.046-5.858,6.046s-5.818-1.864-5.818-6.046V257.866h-4.031v16.773C386.172,280.914,390.392,284.07,396.021,284.07Z" transform="translate(-301.259 -251.239)" fill="#979797"/>
        <path id="Tracé_66" data-name="Tracé 66" d="M319.412,302.5l-1.674-.76c-2.625-1.141-3.728-2.016-3.728-3.954,0-1.75,1.294-3.006,3.347-3.006a4.3,4.3,0,0,1,4.146,2.511l3.156-1.939c-1.558-2.776-3.878-4.069-7.3-4.069-4.3,0-7.263,2.737-7.263,6.579,0,3.993,2.281,5.895,6.047,7.569l1.712.76c2.814,1.254,4.336,2.244,4.336,4.487,0,2.131-1.864,3.537-4.49,3.537-3.155,0-4.714-1.6-5.932-3.612l-3.31,1.826c1.446,2.928,4.413,5.361,9.318,5.361,4.868,0,8.406-2.624,8.406-7.15C326.18,306.493,323.822,304.44,319.412,302.5Z" transform="translate(-308.457 -248.144)" fill="#979797"/>
        <path id="Tracé_67" data-name="Tracé 67" d="M345.948,306.012h9.784v-3.537h-9.784Z" transform="translate(-304.985 -247.107)" fill="#979797"/>
        <path id="Tracé_68" data-name="Tracé 68" d="M374.27,314.177c-5.363,0-9.166-4.145-9.166-9.661s3.8-9.622,9.166-9.622a8.221,8.221,0,0,1,7.264,3.728l3.081-2.207c-2.282-3.422-5.707-5.133-10.345-5.133a13.253,13.253,0,1,0,0,26.507,12.239,12.239,0,0,0,10.724-5.514l-3.08-2.168A8.689,8.689,0,0,1,374.27,314.177Z" transform="translate(-303.591 -248.144)" fill="#979797"/>
        <path id="Tracé_69" data-name="Tracé 69" d="M400.286,291.246a13.273,13.273,0,1,0,13.31,13.273A13.042,13.042,0,0,0,400.286,291.246Zm0,22.934c-5.4,0-9.242-4.145-9.242-9.661s3.841-9.66,9.242-9.66,9.2,4.146,9.2,9.66S405.684,314.18,400.286,314.18Z" transform="translate(-301.189 -248.147)" fill="#979797"/>
        <path id="Tracé_70" data-name="Tracé 70" d="M425.675,302.5l-1.674-.76c-2.624-1.141-3.728-2.016-3.728-3.954,0-1.75,1.295-3.006,3.347-3.006a4.3,4.3,0,0,1,4.146,2.511l3.156-1.939c-1.558-2.776-3.878-4.069-7.3-4.069-4.3,0-7.263,2.737-7.263,6.579,0,3.993,2.282,5.895,6.046,7.569l1.712.76c2.814,1.254,4.336,2.244,4.336,4.487,0,2.131-1.864,3.537-4.488,3.537-3.157,0-4.715-1.6-5.933-3.612l-3.31,1.826c1.446,2.928,4.413,5.361,9.318,5.361,4.869,0,8.406-2.624,8.406-7.15C432.443,306.493,430.086,304.44,425.675,302.5Z" transform="translate(-298.615 -248.144)" fill="#979797"/>
        <path id="Tracé_71" data-name="Tracé 71" d="M449.227,305.768l-12.361-14.452h-.418v26.128h3.841V304.019c0-1.445-.152-3.727-.152-3.727s1.293,1.939,2.282,3.118l6.5,7.835h.458l6.5-7.835a30.241,30.241,0,0,0,2.322-3.118s-.154,2.281-.154,3.727v13.425h3.843V291.316h-.418Z" transform="translate(-296.603 -248.141)" fill="#979797"/>
        <path id="Tracé_72" data-name="Tracé 72" d="M470.527,313.884v-7.336h10.991v-3.46H470.527V295.1h12.4V291.56H466.5v25.862h16.962v-3.537Z" transform="translate(-293.82 -248.118)" fill="#979797"/>
        <rect id="Rectangle_15" data-name="Rectangle 15" width="3.993" height="14.331" transform="translate(28.758 54.972)" fill="#979797"/>
        <rect id="Rectangle_16" data-name="Rectangle 16" width="17.31" height="3.537" transform="translate(22.1 43.441)" fill="#979797"/>
        <path id="Tracé_73" data-name="Tracé 73" d="M418.1,277.037a12.366,12.366,0,0,0,10.484,6.95v-3.341a8.585,8.585,0,0,1-6.653-4.385l1.33-.52c3.384-1.483,5.173-4.222,5.173-8.215,0-5.933-3.994-9.66-11.144-9.66h-6.465v25.862h4.031v-6.655h2.435C417.557,277.073,417.827,277.055,418.1,277.037Zm-3.245-3.425V261.4h2.283c5.057,0,7.187,2.244,7.187,6.123,0,3.842-2.054,6.086-7.187,6.086Z" transform="translate(-298.976 -251.239)" fill="#979797"/>
        <path id="Tracé_74" data-name="Tracé 74" d="M449.893,280.191H436.962v-7.336h10.991v-3.46H436.962V261.4h12.4v-3.537H432.931v25.862h16.962Z" transform="translate(-296.929 -251.239)" fill="#979797"/>
        <path id="Tracé_75" data-name="Tracé 75" d="M444.1,251.8h-3.956l-1.433,4.539h3.05Z" transform="translate(-296.394 -251.801)" fill="#979797"/>
      </g>
      <g id="Groupe_10" data-name="Groupe 10" transform="translate(2.74 80.901)">
        <path id="Tracé_76" data-name="Tracé 76" d="M433.557,370.727c0,1.79.344,4.724.344,4.724a36.875,36.875,0,0,0-3.049-3.543l-13.071-12.27h-.532v26.14h4.991V374.917a45.715,45.715,0,0,0-.38-4.724,38.574,38.574,0,0,0,3.086,3.543l13.071,12.271h.534V359.866h-4.993Z" transform="translate(-301.121 -322.714)" fill="#fff"/>
        <path id="Tracé_77" data-name="Tracé 77" d="M318.928,326.088h-7.963V352h7.963c8,0,13.643-5.3,13.643-12.956S326.892,326.088,318.928,326.088Zm-.267,21.224H316.3V330.775h2.362c5.755,0,8.385,3.43,8.385,8.269S324.416,347.312,318.661,347.312Z" transform="translate(-310.965 -325.821)" fill="#fff"/>
        <path id="Tracé_78" data-name="Tracé 78" d="M340.341,341.525h10.4v-4.572h-10.4v-6.177h11.813v-4.687H335.007V352h17.681v-4.687H340.341Z" transform="translate(-308.738 -325.821)" fill="#fff"/>
        <path id="Tracé_79" data-name="Tracé 79" d="M374.355,341.429a45.384,45.384,0,0,0,2.782-3.658s-.19,2.782-.19,4.534v9.718h5.144V325.844h-.457l-12.575,14.023-12.765-14.023h-.42v26.179h5.106v-9.718c0-1.753-.191-4.534-.191-4.534a45.942,45.942,0,0,0,2.782,3.658l5.145,5.754h.495Z" transform="translate(-306.806 -325.844)" fill="#fff"/>
        <path id="Tracé_80" data-name="Tracé 80" d="M402.526,347.313H390.178v-5.787h10.4v-4.572h-10.4v-6.177h11.813v-4.687H384.844V352h17.681Z" transform="translate(-304.123 -325.821)" fill="#fff"/>
        <path id="Tracé_81" data-name="Tracé 81" d="M426.217,342.626V326.088h-5.335v16.233c0,3.772-1.6,5.221-5.106,5.221-3.544,0-5.182-1.449-5.182-5.221V326.088h-5.335v16.538c0,6.555,4.534,9.718,10.518,9.718C421.682,352.344,426.217,349.18,426.217,342.626Z" transform="translate(-302.232 -325.821)" fill="#fff"/>
        <path id="Tracé_82" data-name="Tracé 82" d="M468.367,347.313H456.019v-5.787h10.4v-4.572h-10.4v-6.177h11.813v-4.687H450.685V352h17.681Z" transform="translate(-298.025 -325.821)" fill="#fff"/>
        <path id="Tracé_83" data-name="Tracé 83" d="M402.127,359.533a13.3,13.3,0,1,0,13.413,13.3A13.122,13.122,0,0,0,402.127,359.533Zm0,21.834c-4.725,0-7.926-3.7-7.926-8.536s3.2-8.536,7.926-8.536,7.925,3.7,7.925,8.536S406.853,381.367,402.127,381.367Z" transform="translate(-303.764 -322.724)" fill="#fff"/>
        <path id="Tracé_84" data-name="Tracé 84" d="M451.58,370.314l-1.333-.571c-2.287-.991-3.278-1.639-3.278-3.238a2.321,2.321,0,0,1,2.555-2.287c1.524,0,2.514.648,3.429,2.287l4.153-2.668c-1.753-3.087-4.191-4.268-7.582-4.268-4.765,0-7.811,3.048-7.811,7.05,0,4.344,2.551,6.4,6.4,8.041l1.335.571c2.439,1.066,3.885,1.714,3.885,3.543,0,1.524-1.409,2.629-3.62,2.629-2.628,0-4.115-1.371-5.258-3.239l-4.343,2.515c1.561,3.087,4.763,5.449,9.715,5.449,5.069,0,8.84-2.63,8.84-7.43C458.668,374.238,456.114,372.258,451.58,370.314Z" transform="translate(-299.004 -322.721)" fill="#fff"/>
        <path id="Tracé_85" data-name="Tracé 85" d="M513,359.847h-7.963v25.911H513c8,0,13.642-5.3,13.642-12.956S520.96,359.847,513,359.847Zm-.267,21.224h-2.363V364.534h2.363c5.755,0,8.385,3.429,8.385,8.268S518.484,381.071,512.729,381.071Z" transform="translate(-292.991 -322.695)" fill="#fff"/>
        <path id="Tracé_86" data-name="Tracé 86" d="M386.65,369.668c0-6.31-4.332-9.768-11.554-9.768H367.95v25.845h5.322v-6.423H375.1c.022,0,.045,0,.067,0a13.029,13.029,0,0,0,11.409,6.77v-4.605a7.677,7.677,0,0,1-6.167-3.242c.4-.158.813-.338,1.266-.552C384.937,376.14,386.65,373.7,386.65,369.668Zm-11.706,5.016h-1.672V364.575h1.672c4.257,0,6.233,1.444,6.233,5.093S379.277,374.684,374.944,374.684Z" transform="translate(-305.687 -322.69)" fill="#fff"/>
        <path id="Tracé_87" data-name="Tracé 87" d="M502.168,369.668c0-6.31-4.332-9.768-11.554-9.768h-7.146v25.845h5.322v-6.423h1.824c.022,0,.045,0,.067,0a13.028,13.028,0,0,0,11.409,6.77v-4.605a7.677,7.677,0,0,1-6.167-3.242c.4-.158.813-.338,1.266-.552C500.455,376.14,502.168,373.7,502.168,369.668Zm-11.706,5.016H488.79V364.575h1.672c4.257,0,6.233,1.444,6.233,5.093S494.8,374.684,490.462,374.684Z" transform="translate(-294.988 -322.69)" fill="#fff"/>
        <path id="Tracé_88" data-name="Tracé 88" d="M340.341,375.284h10.4v-4.573h-10.4v-6.177h11.813v-4.687H335.007v25.912h17.681v-4.687H340.341Z" transform="translate(-308.738 -322.695)" fill="#fff"/>
        <path id="Tracé_89" data-name="Tracé 89" d="M447.741,347.732a7.68,7.68,0,0,1-6.167-3.243c.4-.158.814-.337,1.268-.552,3.265-1.547,4.979-3.99,4.979-8.02,0-6.309-4.333-9.768-11.554-9.768h-7.146v25.846h5.322v-6.424h1.824c.022,0,.045-.005.066-.005a13.029,13.029,0,0,0,11.409,6.771Zm-13.3-16.907h1.672c4.257,0,6.233,1.444,6.233,5.093s-1.9,5.017-6.233,5.017h-1.672Z" transform="translate(-300.022 -325.816)" fill="#fff"/>
        <path id="Tracé_90" data-name="Tracé 90" d="M321.037,359.979v4.777c4.1.837,6.009,3.923,6.009,8.034,0,4.84-2.63,8.269-8.385,8.269H316.3V372.38h-5.334v13.366h7.963c8,0,13.643-5.3,13.643-12.956C332.57,365.829,327.871,360.833,321.037,359.979Z" transform="translate(-310.965 -322.683)" fill="#fff"/>
        <path id="Tracé_91" data-name="Tracé 91" d="M458.637,385.82h5.185l1.956-4.665a13.106,13.106,0,0,0,4.081,1.747l.543.128.542-.128a13.106,13.106,0,0,0,4.3-1.9l2.019,4.815h5.186l-11.9-26.636Zm11.764-7.656a8.425,8.425,0,0,1-2.748-1.483l2.888-6.888,2.818,6.722A8.462,8.462,0,0,1,470.4,378.164Z" transform="translate(-297.288 -322.756)" fill="#fff"/>
      </g>
    </g>
  </g>
</svg>
