<svg xmlns="http://www.w3.org/2000/svg" width="50.811" height="93.162" viewBox="0 0 50.811 93.162">
  <path id="scroll-bubble-down" d="M252.705,0A25.408,25.408,0,0,0,227.3,25.415V67.747a25.405,25.405,0,1,0,50.811,0V25.405A25.4,25.4,0,0,0,252.705,0Zm22.014,67.738a22.01,22.01,0,1,1-44.019,0V25.405a22.014,22.014,0,1,1,44.028,0ZM259.338,76.4a6.633,6.633,0,1,1-6.633-6.633A6.636,6.636,0,0,1,259.338,76.4ZM257.5,63.7a4.8,4.8,0,1,1-4.8-4.8A4.8,4.8,0,0,1,257.5,63.7Zm-1.342-9.493a3.456,3.456,0,1,1-3.456-3.456A3.455,3.455,0,0,1,256.162,54.211Z" transform="translate(-227.3 0)" fill="#2c0022"/>
</svg>
