<svg xmlns="http://www.w3.org/2000/svg" width="59.744" height="59.744" viewBox="0 0 59.744 59.744">
  <path id="sun" d="M92.937,78.074A14.517,14.517,0,0,0,78.065,92c-.212,7.538,6.056,14.6,13.772,14.619,7.429.519,14.53-5.7,14.83-13.69A14.481,14.481,0,0,0,92.937,78.074ZM76.768,79.583a4.035,4.035,0,0,0,.553.471,1.928,1.928,0,0,0,2.533-.232A1.815,1.815,0,0,0,80,77.3c-2.772-2.847-5.592-5.647-8.426-8.432a1.7,1.7,0,0,0-2.042-.2,1.856,1.856,0,0,0-1.086,1.755l-.164.109a8.839,8.839,0,0,0,1,1.55c2.472,2.526,4.984,5.012,7.483,7.511Zm31.067.123q3.9-3.83,7.722-7.736a7.207,7.207,0,0,0,.881-1.475,2.293,2.293,0,0,0-1.3-1.871,1.871,1.871,0,0,0-2.205.4Q108.9,73,104.913,77.03a1.893,1.893,0,0,0-.533,1.884A1.985,1.985,0,0,0,107.835,79.706ZM79.117,104.451a2.084,2.084,0,0,0-2.321.683q-3.769,3.769-7.538,7.545a3.565,3.565,0,0,0-.505.608,1.878,1.878,0,0,0-.075,1.953,1.937,1.937,0,0,0,1.837,1.051,2.118,2.118,0,0,0,1.55-.8q3.779-3.769,7.545-7.545a3.69,3.69,0,0,0,.423-.505A1.942,1.942,0,0,0,79.117,104.451Zm28.943.8a4.946,4.946,0,0,0-.6-.526,1.935,1.935,0,0,0-3.045,1.011,2.121,2.121,0,0,0,.751,2.253l7.463,7.463a4.63,4.63,0,0,0,.553.478,1.877,1.877,0,0,0,2.062.143,1.925,1.925,0,0,0,1.045-1.844,2.224,2.224,0,0,0-.853-1.6q-3.687-3.708-7.374-7.381ZM74.467,94.359a2,2,0,1,0-.02-3.974q-4.875-.01-9.743,0a2,2,0,1,0,.02,3.974c1.611.007,3.23,0,4.841,0,1.632.007,3.271.014,4.9,0Zm45.672-3.974c-3.318-.014-6.63-.02-9.948.014a2.64,2.64,0,0,0-1.29.41,1.889,1.889,0,0,0-.71,2.171,1.981,1.981,0,0,0,1.912,1.372c1.68.02,3.359.007,5.039.007,1.659,0,3.318.014,4.971,0a1.991,1.991,0,1,0,.027-3.974ZM90.861,75.9A1.884,1.884,0,0,0,93,76.552a2.011,2.011,0,0,0,1.359-1.925c.02-1.68.007-3.359.007-5.039s.02-3.359-.007-5.039a1.985,1.985,0,1,0-3.967.007c-.02,3.339-.027,6.671.014,10.01a2.542,2.542,0,0,0,.457,1.338Zm3.032,32.951a1.93,1.93,0,0,0-2.2-.649,2,2,0,0,0-1.3,1.9c-.02,1.7-.007,3.4-.007,5.107,0,1.639-.014,3.271.007,4.9a1.991,1.991,0,1,0,3.974.027c.014-3.312.02-6.63-.014-9.941a2.711,2.711,0,0,0-.457-1.345Z" transform="translate(-62.498 -62.5)" fill="#f2e9f0"/>
</svg>
